<?xml version="1.0" encoding="utf-8"?>
<!-- Generator: Adobe Illustrator 18.1.0, SVG Export Plug-In . SVG Version: 6.00 Build 0)  -->
<svg version="1.1" id="Laptop_Tablet" xmlns="http://www.w3.org/2000/svg" xmlns:xlink="http://www.w3.org/1999/xlink" x="0px"
	 y="0px" viewBox="0 0 320 180" enable-background="new 0 0 320 180" xml:space="preserve">
<g>
	<g>
		<path fill="#333333" d="M179.9,118.9c0.3,0,0.5,0.2,0.5,0.5v1c0,1.4-5.1,4.9-10.3,4.9H86.5c-5.2,0-10.3-3.5-10.3-4.9v-1
			c0-0.3,0.2-0.5,0.5-0.5H179.9z"/>
		<path fill="#333333" d="M80.5,110.2V60.2c0-3.1,2.5-5.6,5.6-5.6l84.4,0c3.1,0,5.6,2.5,5.6,5.6v49.9c0,3.1-2.5,5.6-5.6,5.6H86.1
			C83,115.8,80.5,113.3,80.5,110.2z M128.4,56.4c-0.6,0-1,0.5-1,1s0.5,1,1,1c0.6,0,1-0.5,1-1S128.9,56.4,128.4,56.4z M170.5,109.1
			V61.3c0-0.6-0.5-1-1-1l-82.4,0c-0.6,0-1,0.5-1,1v47.8c0,0.6,0.5,1,1,1l82.4,0C170.1,110.2,170.5,109.7,170.5,109.1z"/>
	</g>
	<path fill="#333333" d="M240.3,125.4h-32.9c-2,0-3.5-1.6-3.5-3.5V72.4c0-2,1.6-3.5,3.5-3.5h32.9c2,0,3.5,1.6,3.5,3.5v49.5
		C243.8,123.8,242.2,125.4,240.3,125.4z M223.8,72.4c0.4,0,0.8-0.4,0.8-0.8s-0.4-0.8-0.8-0.8c-0.4,0-0.8,0.4-0.8,0.8
		S223.3,72.4,223.8,72.4L223.8,72.4z M223.8,124.3c1.3,0,2.3-1,2.3-2.3s-1-2.3-2.3-2.3c-1.3,0-2.3,1-2.3,2.3
		S222.5,124.3,223.8,124.3L223.8,124.3z M240.6,118.4V74.8c0-0.3-0.2-0.5-0.5-0.5h-32.6c-0.3,0-0.5,0.2-0.5,0.5v43.6
		c0,0.3,0.2,0.5,0.5,0.5h32.6C240.4,118.8,240.6,118.6,240.6,118.4z"/>
</g>
</svg>
