<?xml version="1.0" encoding="utf-8"?>
<!-- Generator: Adobe Illustrator 18.1.0, SVG Export Plug-In . SVG Version: 6.00 Build 0)  -->
<svg version="1.1" id="Creator_KIt" xmlns="http://www.w3.org/2000/svg" xmlns:xlink="http://www.w3.org/1999/xlink" x="0px"
	 y="0px" viewBox="0 0 320 180" enable-background="new 0 0 320 180" xml:space="preserve">
<g>
	<path fill="#333333" d="M223.3,50.9h-1.6v-0.6h0.7c0.1,0,0.2-0.1,0.2-0.2v-0.4h0.5c0.5,0,0.9-0.4,0.9-0.8c0-0.5-0.4-0.8-0.8-0.8
		c0,0-0.5,0-0.5,0v-0.4c0-0.1-0.1-0.2-0.2-0.2h-0.7v-2.1h-1.3v5.5h-1.2v-5.6H218v5.6h-1.2v-5.6h-1.3v2.2c-2.4,0.5-5.8,0.4-7.4,0
		c-0.4-0.5-1.1-0.9-1.9-1c-0.5-0.1-0.9,0.3-0.9,0.8v3c0,0.5,0.4,0.9,0.9,0.8c0.8-0.2,1.5-0.5,1.9-1c2-0.4,4.9-0.4,7.4,0v0.8h-1.7
		c-0.3,0-0.5,0.2-0.5,0.5v0.7c0,0.3,0.2,0.5,0.5,0.5h9.5c0.3,0,0.5-0.2,0.5-0.5v-0.7C223.8,51.1,223.6,50.9,223.3,50.9z"/>
	<path fill="#333333" d="M226.4,34c0,1.7-1.4,3-3,3s-3-1.4-3-3c0-1.7,1.4-3,3-3S226.4,32.3,226.4,34z M227,27h-7.2
		c-0.9,0-1.8,0.4-2.4,1h-4.5c0-0.2,0-0.4,0-0.6c0-0.3-0.3-0.6-0.6-0.6h-1.6c-0.3,0-0.6,0.3-0.6,0.6V28h-0.6c-1.4,0-2.5,1.1-2.5,2.5
		v8.1h-0.4c-0.3,0-0.6,0.3-0.6,0.6l0,1.6c0,0.3,0.3,0.6,0.6,0.6l0.4,0v1.7c0,1.4,1.1,2.5,2.5,2.5H227c1.4,0,2.5-1.1,2.5-2.5v-3.2
		c0.6-0.6,1-1.5,1-2.4v-7C230.4,28.6,228.9,27,227,27z M213.5,35.4c0,0.3-0.3,0.6-0.6,0.6h-2.9c-0.3,0-0.6-0.3-0.6-0.6v-3.9
		c0-0.3,0.3-0.6,0.6-0.6h2.9c0.3,0,0.6,0.3,0.6,0.6V35.4z M213.1,40c0,0.9-0.7,1.6-1.6,1.6c-0.9,0-1.6-0.7-1.6-1.6s0.7-1.6,1.6-1.6
		C212.4,38.4,213.1,39.1,213.1,40z M227,39.6h-7.2c-1.1,0-2.1-0.9-2.1-2.1v-7c0-1.1,0.9-2.1,2.1-2.1h7.2c1.1,0,2.1,0.9,2.1,2.1v7
		C229,38.6,228.1,39.6,227,39.6z"/>
</g>
<g>
	<path fill="#333333" d="M141.9,57.1c0-2.3-1.9-4.3-4.3-4.3H131v21.6c0,1.4,1.1,2.5,2.5,2.5h8.5V57.1z"/>
	<path fill="#333333" d="M186.7,46.8c0-1.7-1.5-3.2-3.3-3.6c-3.9-0.9-7.7-2.5-9.2-4.6c-1.2-1.6-1.7-3-2.6-4.4
		c-1.1-1.8-2.9-2.1-5.7-2.1h-3.4c-2.3,0-4.2,1-5.1,3c-0.5,1.1-2.5,5.7-4.8,6.1c-0.8,0.2-2,0.2-3.5,0.3c-1.9,0.1-12.5,0.4-14.1,0.9
		c-0.9,0.3-1.7,0.8-2.4,1.5c-0.6,0.7-1.6,2.3-1.6,4.6V50h6.7c3.9,0,7.1,3.2,7.1,7.1v19.9h39.5c1.4,0,2.5-1.1,2.5-2.5V49.8
		C186.7,49.8,186.7,48.4,186.7,46.8z M164.7,73.1c-7.5,0-13.5-6.1-13.5-13.5S157.2,46,164.7,46c7.5,0,13.5,6.1,13.5,13.5
		S172.2,73.1,164.7,73.1z"/>
</g>
<g>
	<path fill="#333333" d="M203.7,144.7c0.2,0,0.4,0.2,0.4,0.4v0.8c0,1.2-4.3,4.2-8.7,4.2h-70.9c-4.4,0-8.7-3-8.7-4.2v-0.8
		c0-0.2,0.2-0.4,0.4-0.4H203.7z"/>
	<path fill="#333333" d="M119.5,137.3V95c0-2.6,2.1-4.8,4.8-4.8h71.6c2.6,0,4.8,2.1,4.8,4.8v42.3c0,2.6-2.1,4.8-4.8,4.8h-71.6
		C121.6,142,119.5,139.9,119.5,137.3z M160,91.7c-0.5,0-0.9,0.4-0.9,0.9s0.4,0.9,0.9,0.9c0.5,0,0.9-0.4,0.9-0.9S160.5,91.7,160,91.7
		z M195.8,136.4V95.9c0-0.5-0.4-0.9-0.9-0.9h-69.8c-0.5,0-0.9,0.4-0.9,0.9v40.5c0,0.5,0.4,0.9,0.9,0.9h69.8
		C195.4,137.3,195.8,136.9,195.8,136.4z"/>
</g>
<g>
	<path fill="#333333" d="M78.2,89.6l-2-1.2L75.4,90l0,0c-0.1,0.2-1.5,1.6-6.7,1.6c-5.3,0-6.6-1.4-6.7-1.6l0,0l-0.8-1.6l-2,1.2
		c-0.2,0.1-0.3,0.4-0.3,0.6v2.2c0,0.2,0.2,0.5,0.4,0.6l2.9,1.5c0,0.1,0,0.2,0.1,0.3c0.2,0.9,0.5,1.2,1,1.5c0.5,0.3,1.5,0.9,2.2,0.9
		c0.7,0.1,3.4,0.1,3.4,0.1s2.7,0,3.4-0.1c0.7-0.1,1.7-0.6,2.2-0.9c0.5-0.3,0.8-0.7,1-1.5c0-0.1,0-0.2,0.1-0.3l2.9-1.5
		c0.2-0.1,0.4-0.4,0.4-0.6v-2.2C78.6,90,78.4,89.8,78.2,89.6z"/>
	<path fill="#333333" d="M57.6,124.1l-1.2,0.9c-0.2,0.1-0.4,0.1-0.6,0l-11.1-10.7c-0.6-0.6-1.2-1.3-1.3-2.2
		c-0.1-0.8-0.1-1.2-0.2-1.6c-0.1-0.4-0.3-0.9-0.5-1.3c-0.2-0.3-0.4-0.6-0.7-1c-0.1,0-0.2,0.1-0.3,0.1c-1.4,0.3-2.8-0.6-3.1-2
		c-0.1-0.6,0-1.2,0.2-1.7c-0.9-0.8-2.5-1.8-2.7-1.9c-0.2-0.2-1.4-1.1-1.7-1.4L24.5,88c-0.1-0.2-0.1-0.4,0.1-0.6l1.2-0.9
		c0.2-0.1,0.4-0.1,0.6,0l11.1,10.7c0.6,0.6,1.2,1.3,1.3,2.2c0.1,0.8,0.1,1.2,0.2,1.6c0.1,0.4,0.3,0.9,0.5,1.3c0.2,0.3,0.4,0.6,0.7,1
		c0.1,0,0.2-0.1,0.3-0.1c1.4-0.3,2.8,0.6,3.1,2c0.1,0.6,0,1.2-0.2,1.7c0.9,0.8,2.5,1.8,2.7,1.9c0.2,0.2,1.4,1.1,1.7,1.4l9.9,13.2
		C57.8,123.7,57.7,124,57.6,124.1z"/>
	<path fill="#333333" d="M88.2,34.5l1.4-0.7c0.2-0.1,0.5,0,0.6,0.2L99,46.7c0.5,0.7,0.9,1.5,0.8,2.4c-0.1,0.8-0.1,1.2-0.1,1.6
		c0,0.4,0.1,0.9,0.3,1.4c0.1,0.3,0.3,0.7,0.5,1.1c0.1,0,0.2,0,0.3,0c1.4,0,2.6,1.2,2.6,2.6c0,0.6-0.2,1.2-0.6,1.6
		c0.7,1,2.1,2.2,2.3,2.4c0.2,0.2,1.2,1.3,1.4,1.7l7.1,15c0.1,0.2,0,0.4-0.2,0.5l-1.4,0.7c-0.2,0.1-0.5,0-0.6-0.2l-8.8-12.7
		c-0.5-0.7-0.9-1.5-0.8-2.4c0.1-0.8,0.1-1.2,0.1-1.6c0-0.4-0.1-0.9-0.3-1.4c-0.1-0.3-0.3-0.7-0.5-1.1c-0.1,0-0.2,0-0.3,0
		c-1.4,0-2.6-1.2-2.6-2.6c0-0.6,0.2-1.2,0.6-1.6c-0.7-1-2.1-2.2-2.3-2.4c-0.2-0.2-1.2-1.3-1.4-1.7l-7.1-15
		C87.9,34.9,88,34.6,88.2,34.5z"/>
	<path fill="#333333" d="M79.7,124.1l1.2,0.9c0.2,0.1,0.4,0.1,0.6,0l11.1-10.7c0.6-0.6,1.2-1.3,1.3-2.2c0.1-0.8,0.1-1.2,0.2-1.6
		c0.1-0.4,0.3-0.9,0.5-1.3c0.2-0.3,0.4-0.6,0.7-1c0.1,0,0.2,0.1,0.3,0.1c1.4,0.3,2.8-0.6,3.1-2c0.1-0.6,0-1.2-0.2-1.7
		c0.9-0.8,2.5-1.8,2.7-1.9c0.2-0.2,1.4-1.1,1.7-1.4l9.9-13.2c0.1-0.2,0.1-0.4-0.1-0.6l-1.2-0.9c-0.2-0.1-0.4-0.1-0.6,0L99.8,97.3
		c-0.6,0.6-1.2,1.3-1.3,2.2c-0.1,0.8-0.1,1.2-0.2,1.6c-0.1,0.4-0.3,0.9-0.5,1.3c-0.2,0.3-0.4,0.6-0.7,1c-0.1,0-0.2-0.1-0.3-0.1
		c-1.4-0.3-2.8,0.6-3.1,2c-0.1,0.6,0,1.2,0.2,1.7c-0.9,0.8-2.5,1.8-2.7,1.9c-0.2,0.2-1.4,1.1-1.7,1.4l-9.9,13.2
		C79.5,123.7,79.6,124,79.7,124.1z"/>
	<path fill="#333333" d="M62.1,69.4c0-0.1,0.1-0.2,0.1-0.4c0.3-1,0.8-2.6,1.9-2.8c1.5-0.3,3.2-0.3,4.6-0.3c1.4,0,3.1,0,4.6,0.3
		c1.1,0.2,1.6,1.8,1.9,2.8c0,0.1,0.1,0.3,0.1,0.4c0.3,0.9,0.8,1.6,1.2,2.1l2-1.8l-1-13l-3.6-5.1c-1.9-0.3-4.3-0.4-5.2-0.4
		c-0.9,0-3.3,0.1-5.2,0.4l-3.6,5.1l-1,13l2,1.8C61.3,71,61.8,70.2,62.1,69.4z"/>
	<path fill="#333333" d="M61.3,86.6c-0.1-2.5-0.1-4.9-0.1-6.4v-7.6c0.6-0.5,1.4-1.6,1.8-2.9c0-0.1,0.1-0.2,0.1-0.4
		c0.1-0.5,0.6-2,1-2.1c1.4-0.3,3-0.3,4.4-0.3c1.4,0,3,0,4.4,0.3c0.4,0.1,0.9,1.6,1,2.1c0,0.1,0.1,0.3,0.1,0.4
		c0.4,1.3,1.2,2.4,1.8,2.9v7.6c0,1.5,0,3.9-0.1,6.4l-1.4,2.8c-0.1,0.1-0.4,0.3-1.1,0.6c-0.8,0.3-2.3,0.6-4.8,0.6
		c-2.5,0-4-0.3-4.8-0.6c-0.7-0.2-1-0.5-1.1-0.6L61.3,86.6z M68.7,77.5c-0.4,0-0.7,0.3-0.7,0.7c0,0.4,0.3,0.7,0.7,0.7
		c0.4,0,0.7-0.3,0.7-0.7C69.4,77.9,69.1,77.5,68.7,77.5z M68.7,71.2c-1.1,0-2,0.9-2,2c0,1.1,0.9,2,2,2c1.1,0,2-0.9,2-2
		C70.7,72.1,69.8,71.2,68.7,71.2z M68.7,86.2c-0.4,0-0.7,0.3-0.7,0.7c0,0.4,0.3,0.7,0.7,0.7c0.4,0,0.7-0.3,0.7-0.7
		C69.4,86.5,69.1,86.2,68.7,86.2z M68.7,83.3c-0.4,0-0.7,0.3-0.7,0.7c0,0.4,0.3,0.7,0.7,0.7c0.4,0,0.7-0.3,0.7-0.7
		C69.4,83.6,69.1,83.3,68.7,83.3z M68.7,80.4c-0.4,0-0.7,0.3-0.7,0.7c0,0.4,0.3,0.7,0.7,0.7c0.4,0,0.7-0.3,0.7-0.7
		C69.4,80.8,69.1,80.4,68.7,80.4z"/>
	<path fill="#333333" d="M49.1,34.5l-1.4-0.7c-0.2-0.1-0.5,0-0.6,0.2l-8.8,12.7c-0.5,0.7-0.9,1.5-0.8,2.4c0.1,0.8,0.1,1.2,0.1,1.6
		c0,0.4-0.1,0.9-0.3,1.4c-0.1,0.3-0.3,0.7-0.5,1.1c-0.1,0-0.2,0-0.3,0c-1.4,0-2.6,1.2-2.6,2.6c0,0.6,0.2,1.2,0.6,1.6
		c-0.7,1-2.1,2.2-2.3,2.4c-0.2,0.2-1.2,1.3-1.4,1.7l-7.1,15c-0.1,0.2,0,0.4,0.2,0.5l1.4,0.7c0.2,0.1,0.5,0,0.6-0.2l8.8-12.7
		c0.5-0.7,0.9-1.5,0.8-2.4c-0.1-0.8-0.1-1.2-0.1-1.6c0-0.4,0.1-0.9,0.3-1.4c0.1-0.3,0.3-0.7,0.5-1.1c0.1,0,0.2,0,0.3,0
		c1.4,0,2.6-1.2,2.6-2.6c0-0.6-0.2-1.2-0.6-1.6c0.7-1,2.1-2.2,2.3-2.4c0.2-0.2,1.2-1.3,1.4-1.7l7.1-15
		C49.4,34.9,49.3,34.6,49.1,34.5z"/>
	<path fill="#333333" d="M41.2,55.7C41.2,55.7,41.2,55.8,41.2,55.7c0,0.9-0.2,1.6-0.6,2.3c0.3,0.1,0.7,0.2,1.1,0.4l15.2,7.5l3.2,3.9
		l1.7-3.9L41.2,55.7z"/>
	<path fill="#333333" d="M96.1,55.8C96.1,55.8,96.1,55.7,96.1,55.8L75.5,65.8l1.7,3.9l3.2-3.9l15.2-7.5c0.4-0.2,0.7-0.3,1.1-0.4
		C96.4,57.4,96.1,56.6,96.1,55.8z"/>
	<path fill="#333333" d="M45.1,103.6l16.4-12.4l-1.3-1.7L43.7,102C44.3,102.4,44.8,103,45.1,103.6z"/>
	<path fill="#333333" d="M93.6,102L77.1,89.5l-1.3,1.7l16.4,12.4C92.6,103,93,102.4,93.6,102z"/>
</g>
<g>
	<path fill="#333333" d="M274.6,71.2c0.2,0.3,0.6,0.4,1,0.5c0.5,0.1,1,0.2,1.5,0.4c0.8,0.3,0.5,0.3,0.2,1.1
		c-0.2,0.5-0.3,0.9-0.4,1.5c-0.1,0.8-0.3,1.6,0.4,2.2c0.7,0.6,1.4,0.4,2.1,0.5c0.3,0.1,1.2,0.4,1.3,0.7c0.1,0.3-0.7,0.8-1,1.5
		c-0.3,0.7-0.2,1.9-0.2,1.9c-0.3,0.4-0.1,1.2,0.6,1.2c0,0,1,0.9,2.1,1c0.3,0,0.5,0.2,0.8,0.3c0.4,0.2,0.3,0.6,0,0.8
		c-0.3,0.3-0.5,0.7-0.6,1.1c-0.1,0.4-0.1,0.8-0.2,1.1c-0.2,1-0.6,1.2,0.4,2c0.5,0.4,0.8,0.3,1.3,0.5c0.3,0.1,1.3,0.6,1.4,1
		c0.3,0.7-0.6,1.1-0.9,1.7c-0.2,0.4-0.1,0.7-0.3,1.1c-0.1,0.2-0.5,0.6-0.5,0.8c-0.1,0.5,0.3,1,0.7,1.3c0.4,0.3,0.5,0.2,0.9,0.3
		c0.4,0.2,0.6,0.5,0.9,0.7c0.4,0.3,1.1,0.5,1.2,1c0.1,0.5-0.8,1.1-1,1.7c-0.2,0.4-0.9,1.8-0.8,2.1c0.3,1.4,3.4,1.5,3.2,3
		c-0.1,0.6-1,1.1-1.3,1.7c-0.2,0.5-0.8,1-0.9,1.5c-0.2,0.9,1,1.3,1.5,1.7c0.3,0.3,0.8,0.8,1.1,1.2c0.3,0.4,0.4,0.1,0.3,0.6
		c0,0.5-0.4,0.6-0.7,0.9c-0.6,0.6-0.9,1.2-1.3,1.9c-0.3,0.5-0.5,0.2-0.4,0.9c0,0,0.4,0.9,0.4,0.9c0.3,0.3,0.6,0.3,0.9,0.6
		c0.3,0.2,0.2,0.3,0.5,0.6c0.5,0.6,1.1,0.9,0.7,1.7c-0.3,0.5-1.1,0.9-1.4,1.5c-0.4,0.6-1,1-1.1,1.7c-0.1,0.9,0.2,2,0.6,2.7
		c0.8,1.4,2.6,2.6,4.3,2.5c1.8-0.2,3.6-1.8,4-3.5c0.1-0.5,0.2-1.2,0.1-1.7c-0.1-0.7-0.3-0.6-0.7-0.7c-0.2-0.5-0.4-0.9-0.7-1.3
		c-0.3-0.4-1.1-0.8-1.3-1.2c-0.3-0.6,0.1-0.8,0.4-1.3c0.2-0.3,0.7-0.6,1-0.9c0.4-0.5,0.8-1.4,0.8-1.4c0.2,0,0.6-0.8,0.3-1.2
		c-0.3-0.3-0.6-0.3-1-0.5c-0.1-0.6-0.5-1-0.9-1.4c-0.5-0.4-1-0.4-1-1.1c0-0.6,1.1-2.1,1.5-2.5c0.1-0.1,0.4-0.5,0.4-0.5
		c0.5-0.1,0.9-1.1,0.4-1.4c0,0-0.4-1.2-2.2-2c-0.8-0.4-1-0.6-0.6-1.5c0.2-0.5,0.5-1.1,0.7-1.5c0.2-0.4,0.4-0.5,0.7-0.8
		c0.2-0.3,0.6-1.4,0.3-1.8c-0.2-0.3-0.8-0.3-1.1-0.6c-0.5-0.4-0.8-0.7-1.4-1c-0.6-0.3-1.1-0.3-1-1c0.1-0.4,0.5-1.1,0.6-1.5
		c0.1-0.2,0.1-0.4,0.2-0.6c0.1-0.1,0.4-0.2,0.5-0.3c0.5-0.7,0.6-1.5-0.1-2.1c-0.5-0.4-1.1-0.9-1.6-1.2c-0.4-0.2-1.1-0.2-1.3-0.7
		c-0.2-0.5,0.2-0.9,0.4-1.3c0.2-0.5,0.2-1.1,0.4-1.6c0.1-0.2,0.3-0.3,0.5-0.6c0,0,0.1-1,0.1-0.9c-0.1-0.7-0.3-0.8-0.8-1.1
		c-0.6-0.3-1.2-0.7-1.8-0.9c-0.1-0.1-0.4-0.2-0.7-0.3c-0.3-0.1-0.5-0.5-0.4-0.9c0.1-0.4,0.2-0.9,0.3-1.1c0-0.2,0.2-0.5,0.3-0.6
		c0.2-0.4,0.3-0.5,0.4-0.9c0.2-0.9,0-1.5-1-1.9c-0.5-0.2-1-0.5-1.5-0.7c-0.3-0.1-1.3-0.2-1.5-0.6c-0.1-0.1,0.3-0.7,0.4-0.8
		c0.1-0.4,0.2-0.7,0.3-1.1c0.1-0.3-0.1-1.1-0.1-1.1c0.2-0.3,0.3-0.4,0.4-0.8c0.1-0.6-0.2-1.1-1.1-1.3c0,0-0.9-0.6-1.4-0.8
		c-0.7-0.2-1.4,0-1.9-0.3c0.3-0.4,0.3-0.6,0.4-1.1c0-0.2-0.1-0.7,0.2-0.8c0.5-0.2,0.3-1.6-0.3-1.8c-0.3-0.8-1.6-1.4-2.2-1.5
		c-0.3-0.1-1.5-0.2-1.8-0.4c-0.5-0.3-0.6-0.9-0.1-1.8c1.3-1.1-0.4-2.6-1-2.8c-0.8-0.2-2.2-0.9-2.3-2h2.8c0.6,0,1.1-0.5,1.1-1.1
		c0-0.6-0.5-1.1-1.1-1.1h-14.3c-0.6,0-1.1,0.5-1.1,1.1c0,0.6,0.5,1.1,1.1,1.1h2.7c-0.1,1.4-2.8,1.9-3.4,2.3
		c-1.2,0.8-0.9,2.1-0.2,2.4c1.4,0.6,0.8,1.6,0,1.9c-0.8,0.1-1.7,0.3-2.5,0.4c-0.4,0-0.7-0.1-1.2,0.1c-0.8,0.4-0.9,1.5-0.8,2.3
		c0.1,0.8,0.9,2.5,0.3,3.1c-0.3,0.3-1.2,0.2-1.6,0.4c-0.5,0.2-1.6,0.3-2,0.8c-0.5,0.6-0.2,1.8,0,2.4c0.1,0.1,0.2,0.2,0.3,0.3
		c0,0.2,0,0.3,0,0.5c0.1,0.3,0,0.6,0.1,0.8c0.3,0.8,0.5,0.7-0.4,1c-0.7,0.2-1.2,0.5-1.8,0.8c-0.5,0.2-1,0.1-1.3,0.6
		c-0.3,0.4-0.2,0.9-0.1,1.4c0.1,0.6,0.6,0.8,0.8,1.3c0.1,0.3,0,0.9,0.2,1.2c0.1,0.2,0.4,0.5,0.4,0.7c0.1,0.6-0.3,0.6-0.8,0.8
		c-0.7,0.3-1.1,0.7-1.7,1.1c-0.3,0.2-0.7,0.2-0.9,0.6c-0.6,1.1,0.6,1.9,1,2.7c0.2,0.4,0.2,0.7,0.4,1.1c0.4,0.8,0.5,0.8-0.3,1.3
		c-0.7,0.4-1.1,0.8-1.6,1.3c-0.3,0.3-0.9,0.3-1.1,0.7c-0.4,0.8,0.8,1.9,1.2,2.5c0.2,0.3,0.8,1.4,0.8,1.7c-0.1,0.5-0.8,0.7-1.2,0.9
		c-0.5,0.3-0.8,0.8-1.2,1.1c-0.3,0.3-0.7,0.3-0.9,0.7c-0.3,0.8,0.5,1.4,0.8,1.9c0.4,0.5,0.5,1.1,0.8,1.6c0.6,1,0.5,1.1-0.4,1.6
		c-0.6,0.4-1,0.9-1.5,1.4c-0.4,0.4-0.8,0.4-0.9,1c-0.2,1,0.8,1.3,1.2,1.8c0.3,0.3,0.4,1.1,0.7,1.5c0.3,0.5,0.6,0.6,0.2,1.2
		c-0.4,0.5-1,0.6-1.4,1.1c-0.3,0.4-0.6,0.8-0.9,1.1c-0.9,1,0.3,1.7,1,2.5c0.5,0.6,1.6,1.9,1.2,2.7c-0.3,0.5-1,1-1.4,1.5
		c-0.3,0.3-0.7,0.6-0.9,1c-0.5,0.8-0.1,2.5,0.3,3.3c1.4,2.4,4.3,3.3,6.6,1.6c1.1-0.8,2.7-3,2-4.8c-0.2-0.6-0.9-0.8-0.9-0.8
		c-0.1-0.3-0.7-1-1.2-1.5c-0.6-0.5-0.9-0.6-0.5-1.3c0.6-1,1.7-1.3,2.3-2.2c0.5-0.7,0.2-0.8-0.2-1.3c-0.3-0.4-0.5-0.9-0.8-1.3
		c-0.6-0.9-1.7-1-0.9-2.1c0.1-0.2,0.6-0.6,0.7-0.8c0.5-0.5,0.1-0.1,0.5-0.4c0.4-0.3,0.6-0.4,0.9-0.7c0.9-0.9,0.4-1-0.1-1.9
		c-0.3-0.5-0.4-1-0.8-1.5c-0.4-0.4-0.9-0.5-0.7-1.2c0.1-0.5,0.7-0.6,1-1c0.1-0.1,0.3-0.5,0.5-0.6c0.2-0.1,0.6,0,0.8-0.1
		c0.1-0.1,0.7-0.7,0.7-0.8c0.4-0.8-0.1-0.8-0.4-1.5c-0.4-0.8-0.5-1.8-1.5-2.3c0.4-0.6,0.9-1.5,1.5-1.8c0.6-0.4,1.3-0.4,1.8-1.2
		c0.4-0.7,0.1-0.9-0.2-1.5c-0.2-0.4-0.3-0.8-0.5-1.2c-0.5-1-1.7-1.1-0.6-2c0.8-0.7,1.8-0.8,2.5-1.6c0.6-0.8,0.1-1.5-0.2-2.3
		c-0.2-0.6-0.6-1-0.9-1.6c-0.3-0.7-0.2-0.6,0.4-1c0.6-0.5,1.1-0.3,1.8-0.6c1.3-0.6,1.1-1.2,0.8-2.4c-0.1-0.7-0.3-1.2-0.5-1.8
		c-0.2-0.6-0.4-0.6,0.1-1c0.7-0.6,1.9-0.3,2.6-0.8c1.1-0.7,0.8-1,0.6-2.1c-0.1-0.2,0-0.6,0-0.9c0-0.3-0.7-1.6-0.6-1.8
		c0.3-0.7,2.9-0.2,3.5-0.8c0.7-0.6,0.5-2.2,0.4-3c0-0.2-0.4-1.4-0.3-1.4c0.2-0.2,1-0.1,1.2-0.2c-0.1,1.1,0.6,1.5,0.9,2.4
		c0.2,0.6,0.2,0.3-0.2,0.9c-0.2,0.4-0.2,0.6-0.3,1c-0.1,0.7-0.1,1.2,0.3,1.9c0.2,0.3,0.6,0.5,0.9,0.8c0.1,0.1,0.1,0.3,0,0.4
		c-0.1,0.1-0.3,0.4-0.4,0.5c-1.2,1.4-0.5,2.5,0.7,3.8c0.2,0.3,0.2,0.6-0.1,0.8c-0.4,0.3-0.9,0.7-1.1,1c-0.2,0.5-0.3,0.8-0.2,1.4
		c0.2,0.9,0.9,1.5,1.5,2.1c0.3,0.2,0.2,0.5-0.1,0.7c-0.5,0.4-1.1,0.9-1.3,1.4c-0.3,0.6-0.3,1,0,1.6c0.5,1,1.3,1.4,2,2.1
		c0.1,0.1,0.1,0.4-0.2,0.5c-0.5,0.2-1.2,0.6-1.5,1c-0.9,0.9-0.6,2,0.1,2.8c0.5,0.5,2,1.1,1.5,1.8c-0.1,0.1-1.1,0.6-1.9,1.6
		c-0.7,0.8-0.1,2,0.6,2.6c0.4,0.4,1.1,0.6,1.3,1.1c0.3,0.7-0.1,0.6-0.6,1c-0.7,0.6-1.7,1.5-1.5,2.4c0.2,1,1.2,1.7,2,2.5
		c0.2,0.2,0.2,0.6-0.1,0.9c-0.8,0.7-1.9,1.6-2.1,2.6c-0.2,1.3,0.5,2.6,1.4,3.4c1.8,1.7,4.4,1.5,5.9-0.5c0.6-0.8,0.9-1.8,0.8-2.8
		c-0.1-1.1-1.1-1.8-1.8-2.5c-0.6-0.6-0.8-0.6-0.1-1.3c0.4-0.4,0.8-0.6,1.1-0.9c0.3-0.3,0.9-0.9,0.9-1.3c0-0.7-0.9-1.8-1.4-2.1
		c-0.3-0.1-0.6-0.3-0.8-0.5c-0.5-0.6,0.1-1,0.7-1.5c0.6-0.4,1.2-0.9,1.4-1.7c0.2-1-1.3-2.4-1.8-2.8c-0.3-0.2-0.3-0.5-0.1-0.8
		c1.2-1.1,3-2.6,1.4-3.9c-0.3-0.3-0.9-0.7-1.3-1c-0.3-0.2-0.3-0.6,0-0.8c0.7-0.5,1.5-1,1.8-1.7c0.2-0.4,0.3-0.9,0.2-1.3
		c-0.1-0.3-0.9-1.2-1.4-1.7c-0.2-0.2-0.3-0.7-0.1-0.9c0.4-0.3,1-0.7,1.1-1c0.4-0.6,0.7-1.3,0.5-2c-0.1-0.4-1.5-1.6-1.5-1.8
		c0-0.2,0.1-0.3,0.5-0.7c0.3-0.3,0.7-0.6,0.9-0.9c0.4-0.7,0.4-1.8,0-2.5c-0.1-0.2-1-0.9-1-1c-0.1-0.4,0.4-0.6,0.6-0.9
		c0.3-0.5,0.3-0.9,0.4-1.4c0.2-0.8-0.5-1.9-1-2.4c0.1-0.1,0.2-0.3,0.3-0.4c0.2-0.4,0.3-0.7,0.5-1.1c0.3-0.7-0.1-0.7,0.8-0.8
		c-0.2,0.6-0.5,1.1-0.5,1.7c0,0.1,0,0.6,0.1,0.8C273.8,69.6,274,70.5,274.6,71.2z"/>
	<path fill="#333333" d="M279.2,45.8l-2.2,0.8v0.7h-1.3c0.1,0.9,0.1,1.8,0.2,2.7h1.1v0.7l2.2,0.8c0.4,0.1,0.7-0.1,0.7-0.5v-4.8
		C279.8,45.9,279.5,45.7,279.2,45.8z"/>
	<path fill="#333333" d="M279.5,33.9l-1.8,0.6v0.6h-1v2.2h1v0.6l1.8,0.6c0.3,0.1,0.6-0.1,0.6-0.4v-3.8C280,34,279.8,33.8,279.5,33.9
		z"/>
	<path fill="#333333" d="M275.1,52.1L275.1,52.1c0-3.5-0.3-6.5-0.8-8.9c0,0,0,0,0,0h-2.4c-0.3,0-0.5,0.2-0.5,0.5v1.6
		c0,1.3-1,2.3-2.3,2.3c-1.3,0-2.3-1-2.3-2.3v-1.6c0-0.3-0.2-0.5-0.5-0.5h-2.4c0,0,0,0,0,0c-0.5,2.4-0.8,5.3-0.8,8.9h0l-1,1.4v1.1
		h14.3v-1.1L275.1,52.1z"/>
	<path fill="#333333" d="M275.4,34h-1.5c-0.3,0-0.4,0.2-0.3,0.4l0.3,0.7c0.1,0.2,0,0.4-0.3,0.4h-9.1c-0.3,0-0.4-0.2-0.3-0.4l0.3-0.7
		c0.1-0.2,0-0.4-0.3-0.4h-1.5c-0.3,0-0.5,0.2-0.5,0.5V38c0,0.3,0.2,0.5,0.5,0.5h5.1v2.7c-0.6,0.2-1.2,0.6-1.6,1.1h0.1
		c0.9,0,1.6,0.7,1.6,1.6v1.6c0,0.7,0.6,1.2,1.2,1.2c0.7,0,1.2-0.6,1.2-1.2v-1.6c0-0.9,0.7-1.6,1.6-1.6h0.1c-0.4-0.5-1-0.9-1.6-1.1
		v-2.7h5c0.3,0,0.5-0.2,0.5-0.5v-3.5C275.9,34.2,275.7,34,275.4,34z"/>
</g>
<g>
	<path fill="#333333" d="M206.4,66.3h-0.7c-0.6,0-1.2,0.6-1.2,1.2V77c0,0.7,0.5,1.2,1.2,1.2c0.3,0,0.5,0,0.7,0c0,0,0,0,0.1,0V66.3z"
		/>
	<path fill="#333333" d="M233.1,67.9h-5.4c-0.7,0-1.2,0.6-1.2,1.2v0h-1.1l-0.9,0.9V72h-3v-0.7v-4.4c-1.7-1.5-4.5-2.2-7.7-2.2
		c-2.2,0-4.4,0.4-6.2,1.1V79c1.7,0.9,3.7,1.4,5.9,1.4c3.3,0,6.4-1.2,8-3V76v-0.6h3v0l0.7,0.7h1.2c0,0.7,0.6,1.2,1.2,1.2h3.3v1.5
		c0,0.4-0.3,1.1-0.6,1.4l-3.7,3.7c-0.3,0.3-1,0.6-1.4,0.6h-2.2c-0.1-0.3-0.4-0.6-0.8-0.6h-8.7c-0.5,0-0.8,0.4-0.8,0.8v4.9
		c0,0.4,0,0.8,0,1.2c0,0,0,0.1,0,0.1v1.1h13.2v-5.5c0.8-0.2,1.7-0.6,2.2-1.1l3.7-3.7c0.7-0.7,1.2-1.9,1.2-2.9v-1.5l1.2-1.2v-7
		L233.1,67.9z"/>
	<path fill="#333333" d="M224.1,96.9c0,0.3,0,0.5,0.4,0.5c1.3,0,1.7,1,2,1.6l0,0.1c0.1,0,0.3,0.1,0.4,0.3c0.4,0.5,0.8,1.6,1.1,2.5
		c0.1,0.4-0.1,0.8-0.1,0.8s0.6,1.6,0.7,2.2c0.3,1,0.7,2,0.9,3c0.1,0.4-0.3,1-0.5,1.5c-0.7,1.6-1.5,3.1-1.4,4.9
		c0.1,1.2,0.3,2.4,0.5,3.6c0.9,6.9,1.5,13.8,1,20.8c-0.1,1.3-0.3,2.9-0.7,3.7c-0.2,0.4-0.6,0.8-1.7,0.8c-3.2,0-6,0-9.3,0
		c-1.3-0.1-1.5-0.3-1.5-1.6c0,0-0.8-9.6-0.8-16.8c0-7.2,0.6-15.6,0.6-15.6c0-0.7-0.7-1.1-1-1.2c-0.7-0.4-1.5-0.7-2.2-1.1
		c-0.2-0.1-0.4-0.4-0.4-0.6l-0.7-7.9c0-0.4,0.3-0.7,0.7-0.8c0.4-0.1,0.8-0.3,0.8-0.8c0-0.1,0-0.1,0-0.2h0c-0.5,0-0.8-0.4-0.8-0.8v-1
		c0-0.5,0.4-0.8,0.8-0.8h0.1c0,0,12.9,0,12.9,0v1.8c0,0.5-0.4,0.8-0.8,0.8l-1,0L224.1,96.9z"/>
</g>
</svg>
