<?xml version="1.0" encoding="utf-8"?>
<!-- Generator: Adobe Illustrator 18.1.0, SVG Export Plug-In . SVG Version: 6.00 Build 0)  -->
<svg version="1.1" id="Drone_-_imaging" xmlns="http://www.w3.org/2000/svg" xmlns:xlink="http://www.w3.org/1999/xlink" x="0px"
	 y="0px" viewBox="0 0 320 150" enable-background="new 0 0 320 150" xml:space="preserve">
<g id="icons_2_">
	<g>
		<path fill="#444444" d="M132.1,72c-13.8,0-24.9-11.2-24.9-24.9s11.2-24.9,24.9-24.9s24.9,11.2,24.9,24.9S145.9,72,132.1,72z
			 M132.1,23.6c-13,0-23.5,10.6-23.5,23.5s10.6,23.5,23.5,23.5s23.5-10.6,23.5-23.5S145.1,23.6,132.1,23.6z"/>
		<path fill="#444444" d="M132.1,127.8c-13.8,0-24.9-11.2-24.9-24.9s11.2-24.9,24.9-24.9S157,89.1,157,102.9
			S145.8,127.8,132.1,127.8z M132.1,79.4c-13,0-23.5,10.6-23.5,23.5s10.6,23.5,23.5,23.5s23.5-10.6,23.5-23.5S145,79.4,132.1,79.4z"
			/>
		<path fill="#444444" d="M187.9,127.9c-13.8,0-24.9-11.2-24.9-24.9c0-13.8,11.2-25,24.9-25c13.8,0,24.9,11.2,24.9,25
			C212.8,116.7,201.6,127.9,187.9,127.9z M187.9,79.4c-13,0-23.5,10.6-23.5,23.5s10.6,23.5,23.5,23.5s23.5-10.6,23.5-23.5
			S200.9,79.4,187.9,79.4z"/>
		<path fill="#444444" d="M187.9,72.1c-13.8,0-25-11.2-25-24.9s11.2-24.9,25-24.9c13.8,0,24.9,11.2,24.9,24.9S201.7,72.1,187.9,72.1
			z M187.9,23.6c-13,0-23.5,10.6-23.5,23.5s10.6,23.5,23.5,23.5s23.5-10.6,23.5-23.5S200.9,23.6,187.9,23.6z"/>
		<g>
			<path fill="#444444" d="M183.9,99c0.6-0.6,1.4-1.1,2.2-1.4l-10.7-14.1l0,0c-3.8-5-3.8-12,0-17l0,0l10.7-14.1
				c-0.8-0.3-1.6-0.7-2.2-1.4c-0.6-0.6-1-1.3-1.3-2l-14,10.6l0,0c-5,3.8-12,3.8-17,0l0,0l-14-10.6c-0.3,0.7-0.7,1.4-1.3,2
				c-0.6,0.6-1.4,1.1-2.2,1.4l10.7,14.1l0,0c3.8,5,3.8,12,0,17l0,0l-10.7,14.1c0.8,0.3,1.6,0.7,2.2,1.4c0.6,0.6,1,1.3,1.3,2l14-10.6
				l0,0c5-3.8,12-3.8,17,0l0,0l14,10.6C182.8,100.3,183.3,99.6,183.9,99z"/>
			<path fill="#444444" d="M147.2,31.3l-1.9-1.9c-0.1-0.1-0.4-0.1-0.5,0l-11.2,10.8c0,0-0.5,0.5-0.7,0.9c-0.2,0.3-0.2,0.7-0.2,0.7
				l-0.6,2.5c-0.8-0.1-1.6,0.2-2.2,0.8c-0.8,0.8-1,1.9-0.7,2.9c-1,0.2-2.1,0.2-2.9-0.1c-0.8-0.2-1.4,0-1.9,0.8l-8.2,13.1
				c-0.1,0.2-0.1,0.4,0,0.5l1.9,1.9c0.1,0.1,0.4,0.1,0.5,0l11.2-10.8c0,0,0.5-0.5,0.7-0.9c0.2-0.3,0.2-0.7,0.2-0.7l0.5-2.2
				c1,0.2,2,0,2.7-0.7c0.9-0.9,1-2.3,0.5-3.4c0.9-0.2,1.9-0.1,2.6,0.1c0.8,0.2,1.4,0,1.9-0.8l8.2-13.1
				C147.3,31.7,147.4,31.5,147.2,31.3z"/>
			<path fill="#444444" d="M147.2,118.7l-1.9,1.9c-0.1,0.1-0.4,0.1-0.5,0l-11.2-10.8c0,0-0.5-0.5-0.7-0.9c-0.2-0.3-0.2-0.7-0.2-0.7
				l-0.6-2.5c-0.8,0.1-1.6-0.2-2.2-0.8c-0.8-0.8-1-1.9-0.7-2.9c-1-0.2-2.1-0.2-2.9,0.1c-0.8,0.2-1.4,0-1.9-0.8l-8.2-13.1
				c-0.1-0.2-0.1-0.4,0-0.5l1.9-1.9c0.1-0.1,0.4-0.1,0.5,0l11.2,10.8c0,0,0.5,0.5,0.7,0.9c0.2,0.3,0.2,0.7,0.2,0.7l0.5,2.2
				c1-0.2,2,0,2.7,0.7c0.9,0.9,1,2.3,0.5,3.4c0.9,0.2,1.9,0.1,2.6-0.1c0.8-0.2,1.4,0,1.9,0.8l8.2,13.1
				C147.3,118.4,147.4,118.6,147.2,118.7z"/>
			<path fill="#444444" d="M172.8,31.3l1.9-1.9c0.1-0.1,0.4-0.1,0.5,0l11.2,10.8c0,0,0.5,0.5,0.7,0.9c0.2,0.3,0.2,0.7,0.2,0.7
				l0.6,2.5c0.8-0.1,1.6,0.2,2.2,0.8c0.8,0.8,1,1.9,0.7,2.9c1,0.2,2.1,0.2,2.9-0.1c0.8-0.2,1.4,0,1.9,0.8l8.2,13.1
				c0.1,0.2,0.1,0.4,0,0.5l-1.9,1.9c-0.1,0.1-0.4,0.1-0.5,0l-11.2-10.8c0,0-0.5-0.5-0.7-0.9c-0.2-0.3-0.2-0.7-0.2-0.7l-0.5-2.2
				c-1,0.2-2,0-2.7-0.7c-0.9-0.9-1-2.3-0.5-3.4c-0.9-0.2-1.9-0.1-2.6,0.1c-0.8,0.2-1.4,0-1.9-0.8l-8.2-13.1
				C172.7,31.7,172.6,31.5,172.8,31.3z"/>
			<path fill="#444444" d="M172.8,118.7l1.9,1.9c0.1,0.1,0.4,0.1,0.5,0l11.2-10.8c0,0,0.5-0.5,0.7-0.9c0.2-0.3,0.2-0.7,0.2-0.7
				l0.6-2.5c0.8,0.1,1.6-0.2,2.2-0.8c0.8-0.8,1-1.9,0.7-2.9c1-0.2,2.1-0.2,2.9,0.1c0.8,0.2,1.4,0,1.9-0.8l8.2-13.1
				c0.1-0.2,0.1-0.4,0-0.5l-1.9-1.9c-0.1-0.1-0.4-0.1-0.5,0l-11.2,10.8c0,0-0.5,0.5-0.7,0.9c-0.2,0.3-0.2,0.7-0.2,0.7l-0.5,2.2
				c-1-0.2-2,0-2.7,0.7c-0.9,0.9-1,2.3-0.5,3.4c-0.9,0.2-1.9,0.1-2.6-0.1c-0.8-0.2-1.4,0-1.9,0.8l-8.2,13.1
				C172.7,118.4,172.6,118.6,172.8,118.7z"/>
		</g>
	</g>
</g>
</svg>
