<?xml version="1.0" encoding="utf-8"?>
<!-- Generator: Adobe Illustrator 18.1.0, SVG Export Plug-In . SVG Version: 6.00 Build 0)  -->
<svg version="1.1" id="Small_camera" xmlns="http://www.w3.org/2000/svg" xmlns:xlink="http://www.w3.org/1999/xlink" x="0px"
	 y="0px" viewBox="0 0 320 150" enable-background="new 0 0 320 150" xml:space="preserve">
<path fill="#f8971c" d="M167.9,53.2h-55.7v-2.5c0-1.1-0.8-1.9-1.9-1.9h-8.4c-1.1,0-1.9,0.8-1.9,1.9v2.5h-4c-2.5,0-4.4,2.1-4.4,4.4
	V93c0,2.5,2.1,4.4,4.4,4.4h71.7c2.5,0,4.4-2.1,4.4-4.4V57.8C172.6,55.3,170.5,53.2,167.9,53.2z M113.1,63.9H99.6
	c-0.6,0-1.1-0.4-1.1-1.1v-2.1c0-0.6,0.4-1.1,1.1-1.1h13.5c0.6,0,1.1,0.4,1.1,1.1v2.1C114.2,63.5,113.5,63.9,113.1,63.9z M146.4,92.4
	c-8,0-14.3-6.3-14.3-14.3c0-7.8,6.3-14.3,14.3-14.3s14.3,6.3,14.3,14.3C160.8,85.9,154.2,92.4,146.4,92.4z M164.1,64.4
	c-1.7,0-3-1.3-3-3c0-1.7,1.3-3,3-3c1.7,0,3,1.3,3,3C167.3,62.9,165.8,64.4,164.1,64.4z"/>
<g id="icons_6_">
	<g>
		<path fill="#f8971c" d="M213.3,94.7h-2.5v-1h1.2c0.2,0,0.4-0.2,0.4-0.4v-0.8h0.8c0.8,0,1.4-0.6,1.4-1.4c0-0.8-0.6-1.4-1.4-1.4
			h-0.8v-0.6c0-0.2-0.2-0.4-0.4-0.4h-1.2v-3.3h-2.1v9.1h-1.9v-9.1h-2.1v9.1h-1.9v-9.1h-2.1v3.7c-3.9,0.8-9.5,0.6-12.3,0
			c-0.6-0.8-1.8-1.4-3.1-1.8c-0.8-0.2-1.6,0.6-1.6,1.4v4.9c0,0.8,0.8,1.6,1.6,1.4c1.4-0.2,2.5-0.8,3.1-1.8c3.3-0.6,8-0.8,12.3,0v1.4
			h-2.7c-0.4,0-0.8,0.4-0.8,0.8v1.2c0,0.4,0.4,0.8,0.8,0.8h15.6c0.4,0,0.8-0.4,0.8-0.8v-1.2C214.1,95.1,213.7,94.7,213.3,94.7z"/>
		<path fill="#f8971c" d="M218.4,67.1c0,2.7-2.1,5.1-5.1,5.1c-2.9,0-5.1-2.1-5.1-5.1c0-2.9,2.1-5.1,5.1-5.1
			C216.3,62,218.4,64.4,218.4,67.1z M219.4,55.8h-11.9c-1.6,0-2.9,0.6-3.9,1.6h-7.4c0-0.2,0-0.6,0-1c0-0.6-0.4-1-1-1h-2.5
			c-0.6,0-1,0.4-1,1v1h-1c-2.3,0-4.1,1.8-4.1,4.1v13.2h-0.6c-0.6,0-1,0.4-1,1v2.7c0,0.6,0.4,1,1,1h0.6v2.7c0,2.1,1.8,4.1,4.1,4.1
			h28.6c2.1,0,4.1-1.8,4.1-4.1v-5.3c1-1,1.6-2.3,1.6-3.9V61.5C225,58.4,222.5,55.8,219.4,55.8z M197.2,69.4c0,0.6-0.4,1-1,1h-4.7
			c-0.6,0-1-0.4-1-1V63c0-0.6,0.4-1,1-1h4.7c0.6,0,1,0.4,1,1V69.4z M196.6,76.8c0,1.4-1.2,2.5-2.5,2.5s-2.5-1.2-2.5-2.5
			c0-1.4,1.2-2.5,2.5-2.5S196.6,75.5,196.6,76.8z M219.4,76.3h-11.9c-1.9,0-3.3-1.6-3.3-3.3V61.5c0-1.9,1.6-3.3,3.3-3.3h11.9
			c1.9,0,3.3,1.6,3.3,3.3v11.5C222.7,74.7,221.1,76.3,219.4,76.3z"/>
	</g>
</g>
</svg>
