<?xml version="1.0" encoding="utf-8"?>
<!-- Generator: Adobe Illustrator 18.1.0, SVG Export Plug-In . SVG Version: 6.00 Build 0)  -->
<svg version="1.1" id="Camera" xmlns="http://www.w3.org/2000/svg" xmlns:xlink="http://www.w3.org/1999/xlink" x="0px" y="0px"
	 viewBox="0 0 320 180" enable-background="new 0 0 320 180" xml:space="preserve">
<g>
	<g>
		<path fill="#333333" d="M219.3,115.1H217v-0.9h1c0.2,0,0.3-0.1,0.3-0.3v-0.6h0.7c0.7,0,1.2-0.5,1.2-1.2c0-0.7-0.5-1.2-1.2-1.2
			c0,0-0.7,0-0.7,0v-0.5c0-0.2-0.1-0.3-0.3-0.3h-1v-3h-1.9v8.1h-1.7v-8.1h-1.9v8.1h-1.7v-8.2h-1.9v3.3c-3.5,0.7-8.5,0.5-10.9,0
			c-0.6-0.7-1.6-1.3-2.8-1.5c-0.7-0.2-1.4,0.5-1.4,1.2v4.3c0,0.8,0.6,1.4,1.4,1.2c1.2-0.2,2.2-0.8,2.8-1.5c2.9-0.6,7.1-0.6,10.9,0
			v1.2h-2.5c-0.4,0-0.7,0.3-0.7,0.7v1c0,0.4,0.3,0.7,0.7,0.7h14c0.4,0,0.7-0.3,0.7-0.7v-1C220,115.4,219.7,115.1,219.3,115.1z"/>
		<path fill="#333333" d="M223.8,90.3c0,2.5-2,4.5-4.5,4.5c-2.5,0-4.5-2-4.5-4.5s2-4.5,4.5-4.5C221.8,85.8,223.8,87.8,223.8,90.3z
			 M224.6,80.1h-10.6c-1.4,0-2.6,0.6-3.5,1.5H204c0-0.2,0-0.6,0-0.9c0-0.5-0.4-0.9-0.9-0.9h-2.4c-0.5,0-0.9,0.4-0.9,0.9v0.9H199
			c-2,0-3.6,1.6-3.6,3.6V97h-0.6c-0.5,0-0.9,0.4-0.9,0.9l0,2.4c0,0.5,0.4,0.9,0.9,0.9l0.6,0v2.5c0,2,1.6,3.6,3.6,3.6h25.6
			c2,0,3.6-1.6,3.6-3.6v-4.7c0.9-0.9,1.5-2.2,1.5-3.5V85.2C229.7,82.4,227.4,80.1,224.6,80.1z M204.9,92.4c0,0.5-0.4,0.9-0.9,0.9
			h-4.2c-0.5,0-0.9-0.4-0.9-0.9v-5.7c0-0.5,0.4-0.9,0.9-0.9h4.2c0.5,0,0.9,0.4,0.9,0.9V92.4z M204.2,99c0,1.3-1,2.3-2.3,2.3
			s-2.3-1-2.3-2.3c0-1.3,1-2.3,2.3-2.3S204.2,97.8,204.2,99z M224.6,98.4h-10.6c-1.7,0-3-1.4-3-3V85.2c0-1.7,1.4-3,3-3h10.6
			c1.7,0,3,1.4,3,3v10.2C227.7,97.1,226.3,98.4,224.6,98.4z"/>
	</g>
	<g>
		<path fill="#333333" d="M105.9,89c0-3.3-2.7-6.1-6.1-6.1h-9.6v30.7c0,2,1.6,3.6,3.6,3.6h12.1V89z"/>
		<path fill="#333333" d="M169.6,74.4c0-2.4-2.1-4.5-4.7-5.1c-5.6-1.3-11-3.6-13.2-6.5c-1.6-2.2-2.4-4.2-3.6-6.3
			c-1.6-2.6-4.1-2.9-8.2-2.9h-4.8c-3.3,0-6,1.5-7.3,4.3c-0.8,1.5-3.6,8.1-6.9,8.7c-1.2,0.2-2.8,0.3-5,0.4
			c-2.8,0.1-17.8,0.6-20.1,1.3c-1.3,0.4-2.5,1.1-3.4,2.1c-0.9,1-2.2,3.2-2.2,6.6v2h9.6c5.6,0,10.1,4.5,10.1,10.1v28.2h56.1
			c2,0,3.6-1.6,3.6-3.6v-35C169.6,78.7,169.6,76.6,169.6,74.4z M138.3,111.8c-10.6,0-19.2-8.6-19.2-19.2s8.6-19.2,19.2-19.2
			c10.6,0,19.2,8.6,19.2,19.2S149,111.8,138.3,111.8z"/>
	</g>
</g>
</svg>
