<?xml version="1.0" encoding="utf-8"?>
<!-- Generator: Adobe Illustrator 18.1.0, SVG Export Plug-In . SVG Version: 6.00 Build 0)  -->
<svg version="1.1" id="Camera_Large_copy" xmlns="http://www.w3.org/2000/svg" xmlns:xlink="http://www.w3.org/1999/xlink" x="0px"
	 y="0px" viewBox="0 0 320 180" enable-background="new 0 0 320 180" xml:space="preserve">
<g>
	<rect x="109.1" y="22.9" fill="#333333" width="36.3" height="3.7"/>
	<path fill="#333333" d="M135.3,69h-16.2c-1.1,0-2-0.9-2-2v-2h20.2v2C137.3,68.1,136.4,69,135.3,69z"/>
	<g>
		<rect x="109.1" y="29.5" fill="#333333" width="36.3" height="11"/>
		<polygon fill="#333333" points="109.1,53.7 109.1,57.8 114.2,62.9 140.2,62.9 145.3,57.8 145.3,53.7 		"/>
	</g>
	<g>
		<rect x="109.1" y="42.6" fill="#333333" width="2.3" height="9.1"/>
		<rect x="113.9" y="42.5" fill="#333333" width="2.3" height="9.2"/>
		<rect x="118.7" y="42.5" fill="#333333" width="2.3" height="9.3"/>
		<rect x="123.6" y="42.4" fill="#333333" width="2.3" height="9.4"/>
		<rect x="128.4" y="42.4" fill="#333333" width="2.3" height="9.6"/>
		<rect x="133.3" y="42.3" fill="#333333" width="2.3" height="9.7"/>
		<rect x="138.1" y="42.2" fill="#333333" width="2.3" height="9.8"/>
		<rect x="143" y="42.2" fill="#333333" width="2.3" height="9.9"/>
	</g>
</g>
<g>
	<path fill="#333333" d="M87.6,69H71.4c-1.1,0-2-0.9-2-2v-2h20.2v2C89.6,68.1,88.7,69,87.6,69z"/>
	<g>
		<rect x="61.4" y="34.5" fill="#333333" width="36.3" height="9"/>
		<polygon fill="#333333" points="61.4,53.7 61.4,57.8 66.5,62.9 92.5,62.9 97.7,57.8 97.7,53.7 		"/>
	</g>
	<g>
		<rect x="61.4" y="45.6" fill="#333333" width="2.3" height="6.1"/>
		<rect x="66.2" y="45.5" fill="#333333" width="2.3" height="6.2"/>
		<rect x="71.1" y="45.5" fill="#333333" width="2.3" height="6.3"/>
		<rect x="75.9" y="45.4" fill="#333333" width="2.3" height="6.4"/>
		<rect x="80.8" y="45.4" fill="#333333" width="2.3" height="6.6"/>
		<rect x="85.6" y="45.3" fill="#333333" width="2.3" height="6.7"/>
		<rect x="90.5" y="45.2" fill="#333333" width="2.3" height="6.8"/>
		<rect x="95.3" y="45.2" fill="#333333" width="2.3" height="6.9"/>
	</g>
</g>
<g>
	<path fill="#333333" d="M46,17.1H20.2c-3.6,0-6.5,2.9-6.5,6.5v10.6c0,3.6,2.9,6.5,6.5,6.5H46c3.6,0,6.5-2.9,6.5-6.5V23.7
		C52.6,20.1,49.6,17.1,46,17.1L46,17.1z M20.2,37.8c-1.9,0-3.5-1.6-3.5-3.5V23.7c0-1.9,1.6-3.5,3.5-3.5H46c1.9,0,3.5,1.6,3.5,3.5
		v10.6c0,1.9-1.6,3.5-3.5,3.5H20.2z"/>
	<path fill="#333333" d="M20.7,43.3v18.3c0,2.5,2,4.5,4.5,4.5h1.4V51.6c0-1.9,1.6-3.5,3.5-3.5h6c1.9,0,3.5,1.6,3.5,3.5v14.5H41
		c2.5,0,4.5-2,4.5-4.5V43.3H20.7z"/>
	<path fill="#333333" d="M36.1,50.1c0.8,0,1.5,0.7,1.5,1.5v17.5c0,1.1-0.9,1.9-1.9,1.9h-5.2c-1.1,0-1.9-0.9-1.9-1.9V51.6
		c0-0.8,0.7-1.5,1.5-1.5H36.1"/>
</g>
<g>
	<g>
		<g>
			<polygon fill="#333333" points="216.1,32.7 216.1,64.5 216.1,64.7 228.1,64.7 228.1,32.7 			"/>
		</g>
		<path fill="#333333" d="M206.7,66.2c4.8,0,8.8,3.9,8.8,8.8c0,4.8-3.9,8.8-8.8,8.8c-4.8,0-8.8-3.9-8.8-8.8
			C197.9,70.2,201.8,66.2,206.7,66.2"/>
		<path fill="#333333" d="M214.1,29.3c0-1.1-0.9-2-2-2H206c-1.1,0-2,0.9-2,2v35.3c0.9-0.2,1.8-0.3,2.7-0.3c2.9,0,5.5,1.1,7.4,3V29.3
			z"/>
	</g>
	<path fill="#333333" d="M230,65.2V32.7l14.7-4.6c1-0.3,1.9,0.3,1.9,1.4v38.9c0,1.1-0.8,1.7-1.9,1.4L230,65.2z"/>
	<path fill="#333333" d="M175.2,32.2c0-1.1,0.9-2,2-2h24.9v35.1c-2.4,1.1-4.2,3.1-5.3,5.5l-4.6-3.7h-15.1c-1.1,0-2-0.9-2-2V32.2z
		 M197.9,48.9c0-0.8-0.7-1.5-1.5-1.5h-10.1c-0.8,0-1.5,0.7-1.5,1.5s0.7,1.5,1.5,1.5h10.1C197.3,50.4,197.9,49.7,197.9,48.9z
		 M197.9,54.8c0-0.8-0.7-1.5-1.5-1.5h-10.1c-0.8,0-1.5,0.7-1.5,1.5s0.7,1.5,1.5,1.5h10.1C197.3,56.3,197.9,55.6,197.9,54.8z
		 M197.9,43c0-0.8-0.7-1.5-1.5-1.5h-10.1c-0.8,0-1.5,0.7-1.5,1.5c0,0.8,0.7,1.5,1.5,1.5h10.1C197.3,44.5,197.9,43.9,197.9,43z"/>
</g>
<g>
	<path fill="#333333" d="M34,120.4c0-3.1-2.5-5.7-5.7-5.7h-9v43.9c0,1.8,1.5,3.3,3.3,3.3H34V120.4z"/>
	<path fill="#333333" d="M93.7,106.7c0-2.2-2-4.3-4.4-4.8c-5.2-1.2-10.3-3.3-12.3-6.1c-1.5-2.1-2.3-4-3.4-5.9
		c-1.5-2.4-3.9-2.8-7.7-2.8h-4.5c-3.1,0-5.6,1.4-6.8,4c-0.7,1.4-3.4,7.6-6.5,8.1c-1.1,0.2-2.6,0.3-4.7,0.4
		c-2.6,0.1-16.7,0.6-18.9,1.2c-1.3,0.4-2.3,1-3.2,2c-0.8,0.9-2.1,3-2.1,6.2v1.9h9c5.2,0,9.5,4.2,9.5,9.5V162h52.7
		c1.8,0,3.3-1.5,3.3-3.3v-47.9C93.7,110.7,93.7,108.8,93.7,106.7z M64.4,143.3c-10.8,0-19.6-8.8-19.6-19.6s8.8-19.6,19.6-19.6
		c10.8,0,19.6,8.8,19.6,19.6S75.2,143.3,64.4,143.3z"/>
</g>
<g>
	<path fill="#333333" d="M261.6,155.5c0.3,0,0.5,0.2,0.5,0.5v1c0,1.4-5.1,5-10.5,5h-84.9c-5.3,0-10.5-3.6-10.5-5v-1
		c0-0.3,0.2-0.5,0.5-0.5H261.6z"/>
	<path fill="#333333" d="M160.7,146.6V95.9c0-3.2,2.6-5.7,5.7-5.7h85.7c3.2,0,5.7,2.6,5.7,5.7v50.7c0,3.2-2.6,5.7-5.7,5.7h-85.7
		C163.2,152.3,160.7,149.7,160.7,146.6z M209.3,92c-0.6,0-1,0.5-1,1c0,0.6,0.5,1,1,1s1-0.5,1-1C210.3,92.5,209.9,92,209.3,92z
		 M252.1,145.5V97c0-0.6-0.5-1.1-1.1-1.1l-83.6,0c-0.6,0-1.1,0.5-1.1,1.1v48.5c0,0.6,0.5,1.1,1.1,1.1H251
		C251.6,146.6,252.1,146.1,252.1,145.5z"/>
</g>
<g>
	<path fill="#333333" d="M300.1,36.5l-3.1,1.1v1l-1.8,0c0.1,1.2,0.2,2.5,0.2,3.8l1.5,0v1l3.1,1.1c0.5,0.2,1-0.1,1-0.7v-6.7
		C301.1,36.6,300.6,36.3,300.1,36.5z"/>
	<polygon fill="#333333" points="277.7,46.7 276.2,48.7 276.2,50.2 296,50.2 296,48.7 294.5,46.7 	"/>
	<path fill="#333333" d="M300.6,20l-2.5,0.9v0.8l-1.4,0v3l1.4,0v0.8l2.5,0.9c0.4,0.2,0.8-0.1,0.8-0.5l0-5.3
		C301.3,20.1,301,19.8,300.6,20z"/>
	<g>
		<path fill="#333333" d="M293.4,33l-3.4,0c-0.4,0-0.7,0.3-0.7,0.7V36c0,1.8-1.4,3.2-3.2,3.2c-1.8,0-3.2-1.4-3.2-3.2v-2.3
			c0-0.4-0.3-0.7-0.7-0.7l-3.4,0c0,0,0,0,0,0c-0.7,3.3-1.1,7.5-1.1,12.4l16.9,0C294.5,40.4,294.1,36.3,293.4,33
			C293.4,33,293.4,33,293.4,33z"/>
	</g>
	<path fill="#333333" d="M294.9,20.1l-2.1,0c-0.4,0-0.6,0.3-0.4,0.6l0.4,0.9c0.2,0.3,0,0.6-0.4,0.6l-12.6,0c-0.4,0-0.6-0.3-0.4-0.6
		l0.4-0.9c0.2-0.3,0-0.6-0.4-0.6l-2.1,0c-0.4,0-0.7,0.3-0.7,0.7v4.8c0,0.4,0.3,0.7,0.7,0.7l7,0v3.7c-0.9,0.3-1.6,0.9-2.2,1.5l0.1,0
		c1.2,0,2.2,1,2.2,2.2V36c0,1,0.8,1.7,1.7,1.7c1,0,1.7-0.8,1.7-1.7v-2.3c0-1.2,1-2.2,2.2-2.2h0.1c-0.6-0.7-1.3-1.2-2.2-1.5v-3.7l7,0
		c0.4,0,0.7-0.3,0.7-0.7v-4.8C295.6,20.4,295.3,20.1,294.9,20.1z"/>
	<path fill="#333333" d="M302.4,81v-3.9c0-0.7-0.6-1.4-1.3-1.4V63.9c0-1.7-1.2-3.1-2.8-3.4v0l-6.4-1.3v-4.1l4.2,0
		c0.8,0,1.5-0.7,1.5-1.5c0-0.8-0.7-1.5-1.5-1.5l-19.9,0c-0.8,0-1.5,0.7-1.5,1.5s0.7,1.5,1.5,1.5l4.2,0v4.1l-6.2,1.3v0
		c-1.7,0.2-3,1.7-3,3.5v11.7c-0.7,0.1-1.3,0.7-1.3,1.4V81c0,0.7,0.6,1.4,1.3,1.4l0,43.7c-0.7,0.1-1.3,0.7-1.3,1.4l0,3.9
		c0,0.8,0.7,1.5,1.5,1.5h0.2v1.1c-0.7,0.1-1.2,0.7-1.2,1.4v3.9c0,0.8,0.7,1.5,1.5,1.5h0l0,1.1c-0.6,0.2-1.1,0.7-1.1,1.4v3.9
		c0,0.8,0.6,1.4,1.3,1.4v1c-0.6,0.2-1,0.7-1,1.4v3.9c0,0.6,0.4,1.2,1,1.4v2.7c0,0.8,0.7,1.5,1.5,1.5l2.2,0c0.8,0,1.5-0.7,1.5-1.5
		l0-2.7c0.6-0.2,1-0.7,1-1.4v-3.9c0-0.6-0.4-1.2-1-1.4v-1c0.7-0.1,1.3-0.7,1.3-1.4v-3.9c0-0.7-0.4-1.2-1.1-1.4v-1.1h0
		c0.8,0,1.5-0.7,1.5-1.5v-3.9c0-0.7-0.5-1.3-1.2-1.4V133h0.2c0.8,0,1.5-0.7,1.5-1.5v-3.9c0-0.7-0.6-1.4-1.3-1.4l0-43.7
		c0.7-0.1,1.3-0.7,1.3-1.4v-3.9c0-0.7-0.6-1.4-1.3-1.4v-8.9l4.4-0.9v9.8c-0.7,0.1-1.3,0.7-1.3,1.4V81c0,0.7,0.6,1.4,1.3,1.4l0,36.2
		c-0.7,0.1-1.3,0.7-1.3,1.4v3.9c0,0.8,0.7,1.5,1.5,1.5h0.2l0,1.1c-0.7,0.1-1.2,0.7-1.2,1.4v3.9c0,0.8,0.7,1.5,1.5,1.5h0v1.1
		c-0.6,0.2-1.1,0.7-1.1,1.4v3.9c0,0.8,0.6,1.4,1.3,1.4v1c-0.6,0.2-1,0.7-1,1.4v3.9c0,0.6,0.4,1.2,1,1.4l0,2.7c0,0.8,0.7,1.5,1.5,1.5
		l2.2,0c0.8,0,1.5-0.7,1.5-1.5v-2.7c0.6-0.2,1-0.7,1-1.4l0-3.9c0-0.6-0.4-1.2-1-1.4v-1c0.7-0.1,1.3-0.7,1.3-1.4v-3.9
		c0-0.7-0.4-1.2-1.1-1.4v-1.1h0c0.8,0,1.5-0.7,1.5-1.5V128c0-0.7-0.5-1.3-1.2-1.4v-1.1h0.2c0.8,0,1.5-0.7,1.5-1.5V120
		c0-0.7-0.6-1.4-1.3-1.4l0-36.2c0.7-0.1,1.3-0.7,1.3-1.4v-3.9c0-0.7-0.6-1.4-1.3-1.4v-9.8l4.4,0.9l0,8.9c-0.7,0.1-1.3,0.7-1.3,1.4
		l0,3.9c0,0.7,0.6,1.4,1.3,1.4l0,43.7c-0.7,0.1-1.3,0.7-1.3,1.4v3.9c0,0.8,0.7,1.5,1.5,1.5h0.2v1.1c-0.7,0.1-1.2,0.7-1.2,1.4l0,3.9
		c0,0.8,0.7,1.5,1.5,1.5h0v1.1c-0.6,0.2-1.1,0.7-1.1,1.4v3.9c0,0.8,0.6,1.4,1.3,1.4v1c-0.6,0.2-1,0.7-1,1.4v3.9c0,0.6,0.4,1.2,1,1.4
		v2.7c0,0.8,0.7,1.5,1.5,1.5l2.2,0c0.8,0,1.5-0.7,1.5-1.5v-2.7c0.6-0.2,1-0.7,1-1.4v-3.9c0-0.6-0.4-1.2-1-1.4v-1
		c0.7-0.1,1.3-0.7,1.3-1.4v-3.9c0-0.7-0.4-1.2-1.1-1.4v-1.1h0c0.8,0,1.5-0.7,1.5-1.5v-3.9c0-0.7-0.5-1.3-1.2-1.4V133h0.2
		c0.8,0,1.5-0.7,1.5-1.5v-3.9c0-0.7-0.6-1.4-1.3-1.4l0-43.7C301.8,82.3,302.4,81.7,302.4,81z"/>
</g>
<g>
	<path fill="#333333" d="M135.6,162h-16.2c-1.1,0-2-0.9-2-2v-2h20.2v2C137.6,161.1,136.7,162,135.6,162z"/>
	<polygon fill="#333333" points="109.4,146.7 109.4,150.8 114.5,155.9 140.5,155.9 145.6,150.8 145.6,146.7 	"/>
	<g>
		<rect x="109.4" y="135.6" fill="#333333" width="2.3" height="9.1"/>
		<rect x="114.2" y="135.5" fill="#333333" width="2.3" height="9.2"/>
		<rect x="119.1" y="135.5" fill="#333333" width="2.3" height="9.3"/>
		<rect x="123.9" y="135.4" fill="#333333" width="2.3" height="9.4"/>
		<rect x="128.8" y="135.4" fill="#333333" width="2.3" height="9.6"/>
		<rect x="133.6" y="135.3" fill="#333333" width="2.3" height="9.7"/>
		<rect x="138.5" y="135.2" fill="#333333" width="2.3" height="9.8"/>
		<rect x="143.3" y="135.2" fill="#333333" width="2.3" height="9.9"/>
	</g>
	<g>
		<rect x="109.4" y="110.3" fill="#333333" width="36.3" height="23.3"/>
		<polygon fill="#333333" points="105.5,83.6 105.5,103.7 109.2,107.4 145.8,107.4 149.5,103.7 149.5,83.6 		"/>
	</g>
</g>
</svg>
