<?xml version="1.0" encoding="utf-8"?>
<!-- Generator: Adobe Illustrator 18.1.0, SVG Export Plug-In . SVG Version: 6.00 Build 0)  -->
<svg version="1.1" id="Small_Camera" xmlns="http://www.w3.org/2000/svg" xmlns:xlink="http://www.w3.org/1999/xlink" x="0px"
	 y="0px" viewBox="0 0 320 180" enable-background="new 0 0 320 180" xml:space="preserve">
<g>
	<g>
		<path fill="#333333" d="M206.3,105.2h-2v-0.8h0.8c0.1,0,0.2-0.1,0.2-0.2v-0.6h0.6c0.6,0,1.1-0.5,1.1-1.1c0-0.6-0.5-1-1.1-1
			c0,0-0.6,0-0.6,0v-0.5c0-0.1-0.1-0.2-0.2-0.2h-0.8v-2.6h-1.7v7h-1.5v-7h-1.7v7h-1.5v-7h-1.7v2.8c-3,0.6-7.3,0.5-9.4,0
			c-0.5-0.6-1.4-1.1-2.4-1.3c-0.6-0.1-1.2,0.4-1.2,1.1v3.7c0,0.7,0.5,1.2,1.2,1.1c1-0.2,1.9-0.7,2.4-1.3c2.5-0.5,6.1-0.6,9.4,0v1
			h-2.1c-0.3,0-0.6,0.3-0.6,0.6v0.9c0,0.3,0.3,0.6,0.6,0.6h12c0.3,0,0.6-0.3,0.6-0.6v-0.9C206.9,105.5,206.6,105.2,206.3,105.2z"/>
		<path fill="#333333" d="M210.2,83.9c0,2.1-1.7,3.8-3.8,3.8c-2.1,0-3.8-1.7-3.8-3.8c0-2.1,1.7-3.8,3.8-3.8
			C208.5,80.1,210.2,81.8,210.2,83.9z M210.9,75.1h-9.1c-1.2,0-2.3,0.5-3.1,1.2h-5.6c0-0.2,0-0.5,0-0.7c0-0.4-0.3-0.7-0.7-0.7h-2.1
			c-0.4,0-0.7,0.3-0.7,0.7v0.7h-0.7c-1.7,0-3.1,1.4-3.1,3.1v10.2h-0.5c-0.4,0-0.7,0.3-0.7,0.7l0,2.1c0,0.4,0.3,0.7,0.7,0.7l0.5,0
			v2.1c0,1.7,1.4,3.1,3.1,3.1h22c1.7,0,3.1-1.4,3.1-3.1v-4c0.8-0.8,1.2-1.9,1.2-3.1v-8.8C215.3,77.1,213.3,75.1,210.9,75.1z
			 M193.9,85.7c0,0.4-0.3,0.7-0.7,0.7h-3.6c-0.4,0-0.7-0.3-0.7-0.7v-4.9c0-0.4,0.3-0.7,0.7-0.7h3.6c0.4,0,0.7,0.3,0.7,0.7V85.7z
			 M193.3,91.5c0,1.1-0.9,2-2,2s-2-0.9-2-2c0-1.1,0.9-2,2-2S193.3,90.4,193.3,91.5z M210.5,90.9h-8.2c-1.7,0-3-1.4-3-3v-8
			c0-1.7,1.4-3,3-3h8.2c1.7,0,3,1.4,3,3v8C213.5,89.6,212.1,90.9,210.5,90.9z"/>
	</g>
	<path fill="#333333" d="M108.1,72.7c-1.8,0-3.3,1.5-3.3,3.3v26.1c0,1.8,1.5,3.3,3.3,3.3h53c1.8,0,3.3-1.5,3.3-3.3V76
		c0-1.8-1.5-3.3-3.3-3.3H108.1z M145,101.6c-5.8,0-10.6-4.7-10.6-10.6c0-5.8,4.7-10.6,10.6-10.6c5.9,0,10.6,4.7,10.6,10.6
		C155.6,96.9,150.9,101.6,145,101.6z M158.2,80.8c-1.3,0-2.3-1-2.3-2.3c0-1.3,1-2.3,2.3-2.3c1.3,0,2.3,1.1,2.3,2.3
		C160.6,79.8,159.5,80.8,158.2,80.8z M111.3,80.8c-1.3,0-2.3-1-2.3-2.3c0-1.3,1-2.3,2.3-2.3h11.3c1.3,0,2.3,1.1,2.3,2.3
		c0,1.3-1,2.3-2.3,2.3H111.3z"/>
</g>
</svg>
