<?xml version="1.0" encoding="utf-8"?>
<!-- Generator: Adobe Illustrator 18.1.0, SVG Export Plug-In . SVG Version: 6.00 Build 0)  -->
<svg version="1.1" id="Drone_Micro" xmlns="http://www.w3.org/2000/svg" xmlns:xlink="http://www.w3.org/1999/xlink" x="0px"
	 y="0px" viewBox="0 0 320 180" enable-background="new 0 0 320 180" xml:space="preserve">
<g>
	<path fill="#333333" d="M175.2,103.7l-8-7.6V83.9l8-7.6c-1-0.7-1.7-1.7-2-2.8l-6.4,3.4l-1.2-5.3c-0.1-0.4-0.5-0.7-0.8-0.7h-9.4
		c-0.4,0-0.8,0.3-0.8,0.7l-1.2,5.3l-6.4-3.4c-0.3,1.2-1.1,2.2-2,2.8l8,7.6v12.2l-8,7.6c1,0.7,1.7,1.7,2,2.8l6.5-3.4
		c0.2,1.3,0.5,2.4,0.7,2.9c0.5,1.2,1.7,2.2,2.6,2.4c0.9,0.2,2.5,0.4,3.4,0.4c0.9,0,2.6-0.2,3.4-0.4c0.9-0.2,2-1.1,2.6-2.4
		c0.2-0.5,0.5-1.6,0.7-2.9l6.5,3.4C173.5,105.4,174.2,104.4,175.2,103.7z"/>
	<path fill="#333333" d="M188.8,84l-6.3-8.4c-0.4-0.5-1.3-1.4-2-1.9c0.3-0.4,0.4-0.9,0.4-1.5c0-1.6-1.3-2.8-2.8-2.8
		c-0.2,0-0.4,0-0.6,0.1c-0.2-0.6-0.6-1.7-0.7-2.3c-0.2-0.9-0.9-1.7-1.4-2.2c-0.4-0.5-5.1-5.1-6.2-6.2c-0.1-0.1-0.4-0.1-0.5,0
		l-1.3,1.1c-0.1,0.1-0.2,0.3-0.1,0.5l6.3,8.4c0.4,0.5,1.3,1.4,2.1,2c-0.3,0.4-0.4,0.9-0.4,1.4c0,1.6,1.3,2.8,2.8,2.8
		c0.2,0,0.4,0,0.5,0c0.2,0.6,0.6,1.7,0.7,2.3c0.2,0.9,0.9,1.7,1.4,2.2c0.4,0.5,5.1,5.1,6.2,6.2c0.1,0.1,0.4,0.1,0.5,0l1.3-1.1
		C188.9,84.4,188.9,84.2,188.8,84z"/>
	<path fill="#333333" d="M152.8,119.7l-6.3-8.4c-0.4-0.5-1.3-1.4-2.1-2c0.3-0.4,0.4-0.9,0.4-1.4c0-1.6-1.3-2.8-2.8-2.8
		c-0.2,0-0.4,0-0.5,0c-0.2-0.6-0.6-1.7-0.7-2.3c-0.2-0.9-0.9-1.7-1.4-2.2c-0.4-0.5-5.1-5.1-6.2-6.2c-0.1-0.1-0.4-0.1-0.5,0l-1.3,1.1
		c-0.1,0.1-0.2,0.3-0.1,0.5l6.3,8.4c0.4,0.5,1.3,1.4,2,1.9c-0.3,0.4-0.4,0.9-0.4,1.5c0,1.6,1.3,2.8,2.8,2.8c0.2,0,0.4,0,0.6-0.1
		c0.2,0.6,0.6,1.7,0.7,2.3c0.2,0.9,0.9,1.7,1.4,2.2c0.4,0.5,5.1,5.1,6.2,6.2c0.1,0.1,0.4,0.1,0.5,0l1.3-1.1
		C152.9,120.1,152.9,119.9,152.8,119.7z"/>
	<path fill="#333333" d="M188.7,95.5l-1.3-1.1c-0.1-0.1-0.4-0.1-0.5,0c-1.1,1.1-5.8,5.7-6.2,6.2c-0.5,0.5-1.2,1.4-1.4,2.2
		c-0.2,0.6-0.5,1.7-0.7,2.3c-0.2,0-0.3,0-0.5,0c-1.6,0-2.8,1.3-2.8,2.8c0,0.5,0.1,1,0.4,1.4c-0.7,0.5-1.7,1.5-2.1,2l-6.3,8.4
		c-0.1,0.2-0.1,0.4,0.1,0.5l1.3,1.1c0.1,0.1,0.4,0.1,0.5,0c1.1-1.1,5.8-5.7,6.2-6.2c0.5-0.5,1.2-1.4,1.4-2.2
		c0.2-0.6,0.5-1.7,0.7-2.3c0.2,0,0.4,0.1,0.6,0.1c1.6,0,2.8-1.3,2.8-2.8c0-0.6-0.2-1.1-0.4-1.5c0.7-0.5,1.7-1.5,2-1.9l6.3-8.4
		C188.9,95.8,188.9,95.6,188.7,95.5z"/>
	<path fill="#333333" d="M152.7,59.8l-1.3-1.1c-0.1-0.1-0.4-0.1-0.5,0c-1.1,1.1-5.8,5.7-6.2,6.2c-0.5,0.5-1.2,1.4-1.4,2.2
		c-0.2,0.6-0.5,1.7-0.7,2.3c-0.2,0-0.4-0.1-0.6-0.1c-1.6,0-2.8,1.3-2.8,2.8c0,0.6,0.2,1.1,0.4,1.5c-0.7,0.5-1.7,1.5-2,1.9l-6.3,8.4
		c-0.1,0.2-0.1,0.4,0.1,0.5l1.3,1.1c0.1,0.1,0.4,0.1,0.5,0c1.1-1.1,5.8-5.7,6.2-6.2c0.5-0.5,1.2-1.4,1.4-2.2
		c0.2-0.6,0.5-1.7,0.7-2.3c0.2,0,0.3,0,0.5,0c1.6,0,2.8-1.3,2.8-2.8c0-0.5-0.1-1-0.4-1.4c0.7-0.5,1.7-1.5,2.1-2l6.3-8.4
		C152.9,60.1,152.9,59.9,152.7,59.8z"/>
</g>
</svg>
