<?xml version="1.0" encoding="utf-8"?>
<!-- Generator: Adobe Illustrator 18.1.0, SVG Export Plug-In . SVG Version: 6.00 Build 0)  -->
<svg version="1.1" id="Drone_FPV" xmlns="http://www.w3.org/2000/svg" xmlns:xlink="http://www.w3.org/1999/xlink" x="0px" y="0px"
	 viewBox="0 0 320 180" enable-background="new 0 0 320 180" xml:space="preserve">
<g>
	<g>
		<path fill="#333333" d="M94.8,69.6c-0.7,1.5-1.9,2.8-3.4,3.4l16.4,16.4l3.4-3.4L94.8,69.6z"/>
		<g>
			<rect x="102.9" y="81.1" fill="#333333" width="17.8" height="17.8"/>
		</g>
		<path fill="#333333" d="M92.9,67.8c4.4-0.6,10.8-2.1,15.3-4.6l-0.8-2.9c-4,0.4-10.9,2.8-15,4.7c-0.7-1.1-2-1.9-3.4-1.9
			c-0.5,0-1,0.1-1.4,0.2c-2.7-3.5-7.2-8.3-11.6-10.9l-2.1,2.2c2.4,3.3,7.9,8,11.6,10.6c-0.3,0.6-0.5,1.2-0.5,1.9
			c0,1.2,0.6,2.4,1.5,3.1c-1.7,4.1-3.6,10.4-3.6,15.5l2.9,0.8c1.6-3.7,3-10.8,3.4-15.4C91,71.1,92.6,69.7,92.9,67.8z"/>
		<path fill="#333333" d="M128.8,69.6c0.7,1.5,1.9,2.8,3.4,3.4l-16.4,16.4l-3.4-3.4L128.8,69.6z"/>
		<path fill="#333333" d="M130.7,67.8c-4.4-0.6-10.8-2.1-15.3-4.6l0.8-2.9c4,0.4,10.9,2.8,15,4.7c0.7-1.1,2-1.9,3.4-1.9
			c0.5,0,1,0.1,1.4,0.2c2.7-3.5,7.2-8.3,11.6-10.9l2.1,2.2c-2.4,3.3-7.9,8-11.6,10.6c0.3,0.6,0.5,1.2,0.5,1.9c0,1.2-0.6,2.4-1.5,3.1
			c1.7,4.1,3.6,10.4,3.6,15.5l-2.9,0.8c-1.6-3.7-3-10.8-3.4-15.4C132.6,71.1,131,69.7,130.7,67.8z"/>
		<path fill="#333333" d="M94.8,110.4c-0.7-1.5-1.9-2.8-3.4-3.4l16.4-16.4l3.4,3.4L94.8,110.4z"/>
		<path fill="#333333" d="M92.9,112.2c4.4,0.6,10.8,2.1,15.3,4.6l-0.8,2.9c-4-0.4-10.9-2.8-15-4.7c-0.7,1.1-2,1.9-3.4,1.9
			c-0.5,0-1-0.1-1.4-0.2c-2.7,3.5-7.2,8.3-11.6,10.9l-2.1-2.2c2.4-3.3,7.9-8,11.6-10.6c-0.3-0.6-0.5-1.2-0.5-1.9
			c0-1.2,0.6-2.4,1.5-3.1c-1.7-4.1-3.6-10.4-3.6-15.5l2.9-0.8c1.6,3.7,3,10.8,3.4,15.4C91,108.9,92.6,110.3,92.9,112.2z"/>
		<path fill="#333333" d="M128.8,110.4c0.7-1.5,1.9-2.8,3.4-3.4l-16.4-16.4l-3.4,3.4L128.8,110.4z"/>
		<path fill="#333333" d="M130.7,112.2c-4.4,0.6-10.8,2.1-15.3,4.6l0.8,2.9c4-0.4,10.9-2.8,15-4.7c0.7,1.1,2,1.9,3.4,1.9
			c0.5,0,1-0.1,1.4-0.2c2.7,3.5,7.2,8.3,11.6,10.9l2.1-2.2c-2.4-3.3-7.9-8-11.6-10.6c0.3-0.6,0.5-1.2,0.5-1.9c0-1.2-0.6-2.4-1.5-3.1
			c1.7-4.1,3.6-10.4,3.6-15.5l-2.9-0.8c-1.6,3.7-3,10.8-3.4,15.4C132.6,108.9,131,110.3,130.7,112.2z"/>
	</g>
	<g>
		<path fill="#333333" d="M199,92.1c1.3,0,2.5,0.4,3.5,1.2l5.6,4.6c1.9,1.6,5.5,2.8,7.9,2.8h4c4.9,0,8.9-4,8.9-8.9v-7
			c0-4.4-2.8-7.8-7.2-8.7c-5-0.9-12.3-1.2-22.8-1.2c-10.5,0-17.8,0.3-22.8,1.2c-4.3,0.8-7.2,4.3-7.2,8.7v7c0,4.9,4,8.9,8.9,8.9h4
			c2.5,0,6-1.3,7.9-2.8l5.6-4.6C196.5,92.5,197.8,92.1,199,92.1z"/>
		<g>
			<path fill="#333333" d="M234.7,86.8H232v-3.6h2.8c1.5,0,2.7-1.2,2.7-2.7v-17h3.6v17C241,84,238.2,86.8,234.7,86.8z"/>
			<path fill="#333333" d="M232.3,60.5l1.5-3.7c0.5-1.1,1.8-2.1,3.1-2.1h4.8c1.2,0,2.6,0.9,3.1,2.1l1.5,3.7c0.2,0.5-0.1,0.8-0.6,0.8
				h-12.8C232.3,61.3,232.1,60.9,232.3,60.5z"/>
		</g>
	</g>
</g>
</svg>
