<?xml version="1.0" encoding="utf-8"?>
<!-- Generator: Adobe Illustrator 18.1.0, SVG Export Plug-In . SVG Version: 6.00 Build 0)  -->
<svg version="1.1" id="Camera_Medium" xmlns="http://www.w3.org/2000/svg" xmlns:xlink="http://www.w3.org/1999/xlink" x="0px"
	 y="0px" viewBox="0 0 320 180" enable-background="new 0 0 320 180" xml:space="preserve">
<g>
	<g>
		<rect x="125.5" y="99.4" fill="#333333" width="36.3" height="3.7"/>
		<path fill="#333333" d="M151.7,145.5h-16.2c-1.1,0-2-0.9-2-2v-2h20.2v2C153.7,144.6,152.8,145.5,151.7,145.5z"/>
		<g>
			<rect x="125.5" y="106" fill="#333333" width="36.3" height="11"/>
			<polygon fill="#333333" points="125.5,130.2 125.5,134.3 130.6,139.4 156.6,139.4 161.7,134.3 161.7,130.2 			"/>
		</g>
		<g>
			<rect x="125.5" y="119.1" fill="#333333" width="2.3" height="9.1"/>
			<rect x="130.3" y="119" fill="#333333" width="2.3" height="9.2"/>
			<rect x="135.2" y="119" fill="#333333" width="2.3" height="9.3"/>
			<rect x="140" y="118.9" fill="#333333" width="2.3" height="9.4"/>
			<rect x="144.9" y="118.8" fill="#333333" width="2.3" height="9.6"/>
			<rect x="149.7" y="118.8" fill="#333333" width="2.3" height="9.7"/>
			<rect x="154.6" y="118.7" fill="#333333" width="2.3" height="9.8"/>
			<rect x="159.4" y="118.7" fill="#333333" width="2.3" height="9.9"/>
		</g>
	</g>
	<g>
		<rect x="175.4" y="69.9" fill="#333333" width="36.3" height="3.7"/>
		<path fill="#333333" d="M201.7,145.5h-16.2c-1.1,0-2-0.9-2-2v-2h20.2v2C203.7,144.6,202.8,145.5,201.7,145.5z"/>
		<g>
			<rect x="175.4" y="76.5" fill="#333333" width="36.3" height="40.5"/>
			<polygon fill="#333333" points="175.4,130.2 175.4,134.3 180.6,139.4 206.5,139.4 211.7,134.3 211.7,130.2 			"/>
		</g>
		<g>
			<rect x="175.4" y="119.1" fill="#333333" width="2.3" height="9.1"/>
			<rect x="180.3" y="119" fill="#333333" width="2.3" height="9.2"/>
			<rect x="185.1" y="119" fill="#333333" width="2.3" height="9.3"/>
			<rect x="190" y="118.9" fill="#333333" width="2.3" height="9.4"/>
			<rect x="194.8" y="118.8" fill="#333333" width="2.3" height="9.6"/>
			<rect x="199.7" y="118.8" fill="#333333" width="2.3" height="9.7"/>
			<rect x="204.5" y="118.7" fill="#333333" width="2.3" height="9.8"/>
			<rect x="209.4" y="118.7" fill="#333333" width="2.3" height="9.9"/>
		</g>
	</g>
	<g>
		<path fill="#333333" d="M50.8,119c0-3.1-2.5-5.7-5.7-5.7h-9v28.8c0,1.8,1.5,3.3,3.3,3.3h11.3V119z"/>
		<path fill="#333333" d="M110.6,105.3c0-2.2-2-4.3-4.4-4.8c-5.2-1.2-10.3-3.3-12.3-6.1c-1.5-2.1-2.3-4-3.4-5.9
			c-1.5-2.4-3.9-2.8-7.7-2.8h-4.5c-3.1,0-5.6,1.4-6.8,4c-0.7,1.4-3.4,7.6-6.5,8.1c-1.1,0.2-2.6,0.3-4.7,0.4
			c-2.6,0.1-16.7,0.6-18.9,1.2c-1.3,0.4-2.3,1-3.2,2c-0.8,0.9-2.1,3-2.1,6.2v1.9h9c5.2,0,9.5,4.2,9.5,9.5v26.5h52.7
			c1.8,0,3.3-1.5,3.3-3.3v-32.8C110.6,109.3,110.6,107.3,110.6,105.3z M81.2,140.3c-10,0-18-8.1-18-18s8.1-18,18-18
			c10,0,18,8.1,18,18S91.2,140.3,81.2,140.3z"/>
	</g>
	<g>
		<path fill="#333333" d="M156.5,32.9h-25.9c-3.6,0-6.5,2.9-6.5,6.5V50c0,3.6,2.9,6.5,6.5,6.5h25.9c3.6,0,6.5-2.9,6.5-6.5V39.4
			C163.1,35.8,160.1,32.9,156.5,32.9L156.5,32.9z M130.7,53.5c-1.9,0-3.5-1.6-3.5-3.5V39.4c0-1.9,1.6-3.5,3.5-3.5h25.9
			c1.9,0,3.5,1.6,3.5,3.5V50c0,1.9-1.6,3.5-3.5,3.5H130.7z"/>
		<path fill="#333333" d="M131.2,59.1v18.3c0,2.5,2,4.5,4.5,4.5h1.4V67.3c0-1.9,1.6-3.5,3.5-3.5h6c1.9,0,3.5,1.6,3.5,3.5v14.5h1.4
			c2.5,0,4.5-2,4.5-4.5V59.1H131.2z"/>
		<path fill="#333333" d="M146.6,65.8c0.8,0,1.5,0.7,1.5,1.5v17.5c0,1.1-0.9,1.9-1.9,1.9H141c-1.1,0-1.9-0.9-1.9-1.9V67.3
			c0-0.8,0.7-1.5,1.5-1.5H146.6"/>
	</g>
	<g>
		<path fill="#333333" d="M265.9,60.8l-2.4,0.8v0.8h-1.4c0.1,0.9,0.1,1.9,0.2,2.9h1.2v0.8l2.4,0.8c0.4,0.1,0.7-0.1,0.7-0.5v-5.1
			C266.6,60.9,266.3,60.7,265.9,60.8z"/>
		<path fill="#333333" d="M266.2,48.2l-1.9,0.7v0.6h-1.1v2.3h1.1v0.6l1.9,0.7c0.3,0.1,0.6-0.1,0.6-0.4v-4.1
			C266.8,48.2,266.5,48.1,266.2,48.2z"/>
		<path fill="#333333" d="M261.6,67.6L261.6,67.6c0-3.7-0.3-6.9-0.9-9.4c0,0,0,0,0,0h-2.6c-0.3,0-0.5,0.2-0.5,0.5v1.8
			c0,1.4-1.1,2.5-2.5,2.5s-2.5-1.1-2.5-2.5v-1.8c0-0.3-0.2-0.5-0.5-0.5h-2.6c0,0,0,0,0,0c-0.5,2.5-0.8,5.7-0.9,9.4h0l-1.1,1.5v1.1
			h15.2v-1.1L261.6,67.6z"/>
		<path fill="#333333" d="M261.9,48.3h-1.6c-0.3,0-0.4,0.2-0.3,0.5l0.3,0.7c0.1,0.3,0,0.5-0.3,0.5h-9.7c-0.3,0-0.4-0.2-0.3-0.5
			l0.3-0.7c0.1-0.3,0-0.5-0.3-0.5h-1.6c-0.3,0-0.5,0.2-0.5,0.5v3.7c0,0.3,0.2,0.5,0.5,0.5h5.4v2.8c-0.7,0.2-1.2,0.7-1.7,1.2h0.1
			c0.9,0,1.7,0.8,1.7,1.7v1.8c0,0.7,0.6,1.3,1.3,1.3c0.7,0,1.3-0.6,1.3-1.3v-1.8c0-0.9,0.8-1.7,1.7-1.7h0.1c-0.5-0.5-1-0.9-1.7-1.2
			V53h5.4c0.3,0,0.5-0.2,0.5-0.5v-3.7C262.4,48.5,262.2,48.3,261.9,48.3z"/>
		<path fill="#333333" d="M260.5,87.1c0,0,0.5,0.5,1,0.6c0.5,0.1,0.8-0.1,0.8-0.1s0.5,0.4,0.8,0.4c0.3,0.1,0.5,0,0.5,0
			s0.3,0,0.2,0.3c-0.1,0.3-0.3,0.7-0.5,1.4c-0.2,0.7-0.1,1.4-0.1,1.4s-0.6,0.7-0.1,1.5c0.3,0.6,0.9,0.6,0.9,0.6s0.4,0.4,0.8,0.5
			c0.4,0.1,0.8-0.1,0.8-0.1s0.4,0.2,0.7,0.3c0.3,0.1,0.5,0.1,0.6,0.2s0.2,0.1,0.1,0.3c-0.1,0.2-0.5,0.9-0.7,1.5
			c-0.2,0.6-0.2,1.3-0.2,1.3s-0.5,0.5-0.3,1.2c0.2,0.8,0.8,1,0.8,1s0.5,0.5,0.9,0.6s0.7,0,0.7,0s0.5,0.4,0.9,0.6
			c0.4,0.2,0.5,0.2,0.6,0.2c0.1,0,0.3,0.2,0.2,0.5s-0.5,0.8-0.7,1.4c-0.3,0.8-0.3,1.4-0.3,1.4s-0.6,0.5-0.4,1.2
			c0.2,0.7,0.8,0.9,0.8,0.9s0.4,0.5,0.8,0.6s0.7,0.1,0.7,0.1s0.6,0.5,0.9,0.7s0.5,0.3,0.6,0.4c0.1,0.2,0.1,0.4-0.1,0.6
			c-0.2,0.2-0.6,0.8-0.9,1.4c-0.3,0.6-0.3,1.3-0.3,1.3s-0.7,0.5-0.5,1.1c0.3,0.7,0.6,0.6,0.6,0.6s0.3,0.6,0.7,0.7
			c0.4,0.2,0.7,0.1,0.7,0.1s0.5,0.6,0.9,0.9c0.4,0.3,0.7,0.4,0.7,0.4c0.1,0,0.4,0.3,0.1,0.7c-0.2,0.4-0.7,0.8-1,1.6
			c-0.3,0.7-0.3,1.3-0.3,1.3s-0.7,0.4-0.5,1.1c0.2,0.6,0.6,0.6,0.6,0.6s0.2,0.6,0.7,0.7c0.5,0.1,0.7,0.1,0.7,0.1s0.3,0.6,0.7,0.9
			c0.3,0.3,0.5,0.3,0.6,0.6c0.1,0.2,0,0.5-0.3,0.7c-0.3,0.2-0.9,0.8-1.2,1.5c-0.3,0.7-0.3,1-0.3,1s-0.7,0.1-0.6,0.9
			c0.1,0.7,0.6,0.8,0.6,0.8s0.1,0.5,0.5,0.7c0.4,0.2,0.8,0.1,0.8,0.1s0.3,0.7,0.7,1.1c0.4,0.4,0.6,0.6,0.7,0.8
			c0,0.2-0.1,0.4-0.3,0.6c-0.2,0.2-0.7,0.5-1.2,1.1c-0.4,0.6-0.6,1.3-0.6,1.3s-0.7,0.2-0.6,0.8s0.5,0.8,0.5,0.8s0,0.5,0.4,0.7
			c0.4,0.3,0.8,0.2,0.8,0.2s0.2,0.6,0.6,1c0.4,0.4,0.7,0.7,0.7,0.8c0,0.1,0.1,0.5-0.2,0.7c-0.3,0.2-0.9,0.6-1.3,1.2
			s-0.6,1.1-0.6,1.1s-0.6,0.1-0.8,0.8s0,3,1.5,4.3c1.5,1.4,2.6,1.5,3.7,1.5c1,0,2.5-0.6,3.5-1.9c0.5-0.6,0.8-1.1,1-2
			c0.2-0.8,0.1-1.5,0.1-2c-0.1-0.7-0.8-0.8-0.8-0.8s-0.2-0.7-0.8-1.3c-0.6-0.7-1.1-0.8-1.2-1c-0.1-0.2-0.2-0.6,0-0.7
			c0.2-0.2,0.6-0.5,0.8-1s0.5-1.1,0.5-1.1s0.5-0.1,0.7-0.3c0.4-0.3,0.4-0.8,0.4-0.8s0.5-0.3,0.4-0.9c-0.1-0.6-0.8-0.8-0.8-0.8
			s-0.3-0.7-0.8-1.3c-0.6-0.6-1.2-0.8-1.3-0.9c-0.1-0.1-0.3-0.6-0.1-0.8c0.2-0.2,0.7-0.7,0.9-1.2c0.3-0.6,0.3-0.9,0.3-0.9
			s0.4,0,0.7-0.3c0.4-0.3,0.3-0.8,0.3-0.8s0.4-0.3,0.3-0.9c-0.1-0.6-0.8-0.7-0.8-0.7s-0.4-0.8-1-1.3c-0.6-0.6-1.1-0.6-1.3-0.8
			c-0.2-0.2-0.3-0.5-0.2-0.7s0.7-0.8,0.9-1.4c0.2-0.6,0.2-1.1,0.2-1.1s0.4-0.1,0.7-0.5c0.2-0.4,0.2-0.8,0.2-0.8s0.4-0.4,0.2-1
			c-0.2-0.6-1-0.6-1-0.6s-0.4-0.6-1.2-1.1c-0.8-0.5-1.2-0.5-1.4-0.6s-0.5-0.4-0.3-0.6c0.1-0.3,0.5-0.7,0.6-1.2c0.2-0.5,0.2-1,0.2-1
			s0.6-0.3,0.8-0.6c0.2-0.4,0.1-0.7,0.1-0.7s0.4-0.5,0.1-1.1c-0.3-0.6-1-0.6-1-0.6s-0.4-0.6-1.1-1.1s-1.2-0.5-1.4-0.6
			c-0.2-0.1-0.4-0.4-0.3-0.7s0.5-0.6,0.6-1.3c0.1-0.6,0.1-1,0.1-1s0.6-0.4,0.7-0.8c0.1-0.3,0-0.7,0-0.7s0.3-0.4,0-1.1
			c-0.2-0.6-1.2-0.6-1.2-0.6s-0.3-0.4-1.1-0.8c-0.8-0.4-1.3-0.4-1.5-0.5c-0.2-0.1-0.3-0.4-0.2-0.5s0.4-0.7,0.5-1.1
			c0.1-0.4,0.1-0.7,0.1-0.7s0.5-0.2,0.6-0.8c0.1-0.5,0.1-0.8,0.1-0.8s0.3-0.6,0-1.1c-0.5-0.8-1.4-0.8-1.4-0.8s-0.5-0.5-1.3-0.8
			c-0.8-0.3-1.2-0.2-1.3-0.3c-0.1-0.1-0.2-0.2-0.1-0.3c0.1-0.1,0.4-0.8,0.5-1.3c0.1-0.5,0-1,0-1s0.4-0.4,0.5-1c0-0.5,0-0.7,0-0.7
			s0.2-0.7-0.3-1.2c-0.5-0.6-1.4-0.5-1.4-0.5s-0.6-0.4-1.4-0.5c-0.8-0.2-1.3-0.2-1.3-0.2s-0.2-0.1-0.1-0.2c0-0.1,0.2-0.5,0.2-1
			s0-0.8,0-0.8s0.3-0.4,0.4-0.9s0-0.9,0-0.9s0.2-0.7-0.3-1.3c-0.6-0.7-1.6-0.5-1.6-0.5s-0.6-0.3-1.3-0.4c-0.7-0.1-1.2,0-1.2,0
			s-0.1,0-0.1-0.1c0-0.1,0.2-0.6,0.2-1c0-0.4,0-0.7,0-0.7s0.3-0.4,0.5-0.9c0.1-0.5-0.1-0.8-0.1-0.8s0.2-0.6-0.2-1.1
			c-0.4-0.6-1.4-0.5-1.4-0.5s-0.6-0.3-1.1-0.5c-0.5-0.1-1.2-0.2-1.2-0.2s0-0.1-0.2-0.3s-0.4-0.2-0.5-0.3c0,0,0-0.1,0-0.1h3.5
			c0.7,0,1.2-0.5,1.2-1.2c0-0.7-0.5-1.2-1.2-1.2h-15.2c-0.7,0-1.2,0.5-1.2,1.2c0,0.7,0.5,1.2,1.2,1.2h2.4c0,0,0,0.1-0.1,0.1
			c-0.1,0.1-0.3,0.1-0.5,0.2s-0.2,0.2-0.2,0.2s-0.4,0-1.2,0.2c-0.8,0.2-1.1,0.4-1.1,0.4s-0.8-0.1-1.3,0.4c-0.4,0.4-0.2,1.1-0.2,1.1
			s-0.2,0.5,0,1c0.1,0.3,0.4,0.6,0.4,0.6s0,0.4,0,0.8s0.1,0.7,0.1,0.8c0,0.1-0.1,0.1-0.1,0.1s-0.8-0.1-1.5,0
			c-0.7,0.1-1.3,0.3-1.3,0.3s-0.8-0.1-1.4,0.3c-0.7,0.5-0.5,1.3-0.5,1.3s-0.1,0.4-0.1,0.8c0.1,0.4,0.3,0.9,0.3,0.9s-0.1,0.6,0,1.1
			c0,0.5,0.2,1.1,0.3,1.1c0,0.1,0,0.4-0.3,0.4c-0.3,0-0.9,0-1.6,0.3s-1,0.6-1,0.6s-0.6,0-1.1,0.3c-0.7,0.5-0.4,1.3-0.4,1.3
			s-0.1,0.5,0.1,0.9c0.1,0.5,0.5,0.8,0.5,0.8s0,0.4,0.1,1c0.1,0.6,0.3,0.9,0.3,0.9s0,0.4-0.2,0.4c-0.1,0-0.7,0.1-1.5,0.3
			c-0.8,0.3-1.1,0.7-1.1,0.7s-0.9,0.1-1.3,0.6c-0.4,0.6,0,1.2,0,1.2s-0.1,0.4,0.1,0.9c0.2,0.4,0.6,0.7,0.6,0.7s0,0.6,0.3,1.3
			c0.2,0.7,0.5,0.8,0.5,1c0,0.1,0,0.3-0.3,0.4c-0.3,0.1-1.1,0.4-1.7,0.8c-0.6,0.4-0.8,0.8-0.8,0.8s-0.6,0-1,0.6
			c-0.4,0.6,0.1,1.2,0.1,1.2s0,0.6,0.2,0.9c0.2,0.3,0.6,0.6,0.6,0.6s0,0.5,0.3,1.2c0.3,0.7,0.6,0.8,0.6,1c0,0.1,0.1,0.4-0.2,0.6
			c-0.3,0.1-0.8,0.4-1.4,0.8c-0.6,0.4-0.9,1-0.9,1s-0.8,0.2-1,0.8c-0.2,0.6,0.3,1.1,0.3,1.1s0,0.4,0.3,0.8c0.3,0.3,0.7,0.5,0.7,0.5
			s0.1,0.5,0.3,1c0.3,0.4,0.5,0.7,0.5,0.8c0,0.1,0,0.5-0.3,0.6c-0.3,0.2-1,0.4-1.5,0.9c-0.6,0.5-0.8,1-0.8,1s-0.8,0-1,0.7
			s0.3,1,0.3,1s-0.1,0.5,0.3,0.8c0.4,0.4,0.6,0.4,0.6,0.4s0.1,0.6,0.3,1.1c0.3,0.5,0.6,0.8,0.7,1c0.1,0.2,0.2,0.5-0.3,0.8
			s-1,0.5-1.5,1.1s-0.7,1-0.7,1s-0.7,0-0.8,0.7c-0.1,0.7,0.3,0.8,0.3,0.8s-0.1,0.5,0.3,0.8c0.4,0.3,0.7,0.3,0.7,0.3s0,0.6,0.3,1.2
			c0.3,0.6,0.7,0.8,0.8,1s0.2,0.6-0.3,0.8c-0.4,0.2-1.1,0.6-1.5,1.2c-0.5,0.6-0.6,0.9-0.6,0.9s-0.7,0-0.8,0.7
			c-0.1,0.7,0.4,0.9,0.4,0.9s-0.1,0.4,0.3,0.8c0.3,0.3,0.8,0.3,0.8,0.3s0.1,0.5,0.5,1.1c0.4,0.6,0.8,0.9,0.9,1s0.2,0.5-0.2,0.8
			c-0.4,0.3-1,0.7-1.4,1.4c-0.4,0.6-0.5,0.9-0.5,0.9s-0.7,0.1-0.8,0.9c-0.1,0.8,0,2.5,1,3.7c1,1.2,2.4,2.2,4.3,2
			c1.9-0.2,3.1-1.4,3.7-2.2c0.3-0.4,0.6-1,0.7-1.6c0.2-0.8,0.2-1.7,0.1-2.1c-0.2-0.7-0.8-0.8-0.8-0.8s-0.1-0.6-0.8-1.2
			c-0.6-0.7-1-0.8-1.2-1c-0.2-0.1-0.3-0.6-0.1-0.8c0.2-0.2,0.6-0.6,0.8-0.9c0.2-0.3,0.3-0.6,0.3-0.6s0.6,0,0.9-0.3
			c0.3-0.3,0.4-0.6,0.4-0.6s0.5-0.2,0.5-0.8c0-0.8-0.7-1-0.7-1s-0.1-0.7-0.7-1.5s-1-0.9-1.2-1.1c-0.1-0.2-0.1-0.6,0.1-0.8
			s0.6-0.4,0.8-0.7c0.2-0.3,0.4-0.7,0.4-0.7s0.5,0.1,0.8-0.1c0.4-0.3,0.5-0.7,0.5-0.7s0.5-0.1,0.6-0.7c0.1-0.8-0.6-1-0.6-1
			s-0.1-0.7-0.6-1.5c-0.5-0.8-1-1-1.1-1.2s-0.2-0.5,0.1-0.7c0.2-0.2,0.7-0.5,0.9-0.8c0.3-0.3,0.5-0.6,0.5-0.6s0.5,0,0.8-0.2
			c0.3-0.2,0.5-0.7,0.5-0.7s0.4-0.1,0.6-0.8s-0.6-1-0.6-1s-0.1-0.7-0.6-1.5c-0.5-0.8-0.9-1-1-1.3c-0.1-0.3,0-0.6,0.3-0.7
			c0.3-0.1,0.6-0.4,0.9-0.7c0.3-0.3,0.5-0.5,0.5-0.5s0.6-0.1,0.9-0.3c0.3-0.2,0.5-0.6,0.5-0.6s0.6-0.2,0.6-1
			c0.1-0.7-0.6-1.1-0.6-1.1s-0.1-0.7-0.7-1.5c-0.6-0.8-0.9-0.9-1-1.2c0-0.3,0.2-0.4,0.3-0.5s0.5-0.3,0.7-0.5s0.4-0.4,0.4-0.4
			s0.6,0,0.9-0.2s0.5-0.6,0.5-0.6s0.7-0.2,0.8-1c0-0.5-0.6-1-0.6-1s0-0.7-0.5-1.5c-0.4-0.7-0.8-1-0.8-1.3c-0.1-0.2,0.1-0.5,0.2-0.5
			c0.2,0,0.4-0.2,0.6-0.3c0.2-0.1,0.5-0.3,0.5-0.3s0.7,0,1-0.1c0.3-0.1,0.7-0.5,0.7-0.5s0.8-0.2,0.8-0.9c0-0.7-0.3-1.2-0.3-1.2
			s0-0.7-0.3-1.5s-0.6-1.1-0.6-1.3s0.1-0.3,0.2-0.3c0.1,0,0.7-0.2,0.9-0.3s0.5-0.3,0.5-0.3s0.7,0.1,1,0c0.3-0.1,0.6-0.4,0.6-0.4
			s0.9-0.2,1-1c0.1-0.8-0.3-1.2-0.3-1.2s0-0.7-0.2-1.5c-0.2-0.8-0.5-1.1-0.5-1.3c0-0.2,0.1-0.3,0.2-0.3c0.1,0,0.5,0,0.7-0.1
			c0.2-0.1,0.4-0.2,0.4-0.2s0.6,0.2,1.1,0.1s0.7-0.3,0.7-0.3s0.7,0,1-0.7c0.3-0.7,0-1.3,0-1.3s0.2-0.6,0.1-1.5
			c-0.1-0.7-0.3-1.2-0.3-1.3c0-0.1,0.1-0.3,0.2-0.3c0.2,0,0.6,0,0.7,0c0.1,0,0.4-0.1,0.4-0.1s0,1,0.4,1.7c0.4,0.8,0.9,1.1,0.9,1.1
			s-1.2,1.1-0.8,2.8c0.4,1.5,1.5,2.1,1.5,2.1s-1.3,0.8-1.4,2.3c-0.1,1.3,1.2,2.3,1.2,2.3c0.2,0.3,0.7,0.6,0.7,0.6
			c-0.3,0.2-0.5,0.4-0.5,0.4s-1,0.5-1.3,1.6c-0.1,0.5,0,1.1,0.2,1.5c0.3,0.6,0.7,0.9,0.7,0.9s0.2,0.3,0.4,0.5
			c0.3,0.2,0.9,0.6,0.9,0.6s-0.4,0.2-0.7,0.5c-0.3,0.3-0.3,0.4-0.3,0.4s-0.7,0.4-1,1c-0.3,0.6-0.3,1.3,0,1.9
			c0.2,0.3,0.5,0.7,0.5,0.7s0.2,0.4,0.6,0.7c0.4,0.3,1,0.6,1,0.6c0,0.1,0.2,0.2,0.2,0.2s-0.5,0.2-0.9,0.6c-0.4,0.4-0.6,0.7-0.6,0.7
			s-1,0.5-1,1.6c0,0.9,0.6,1.3,0.6,1.3s0.2,0.5,0.7,0.8s0.6,0.4,0.6,0.4s0.2,0.4,0.4,0.5c0.2,0.1,0.3,0.3,0.3,0.3s-0.6,0.4-1.2,0.9
			c-0.4,0.4-0.6,0.8-0.6,0.8s-0.8,0.4-0.8,1.2c-0.1,0.8,0.5,1.4,0.5,1.4s0.2,0.5,0.6,0.8c0.4,0.3,0.7,0.4,0.7,0.4s0.2,0.4,0.5,0.6
			c0.3,0.2,0.4,0.3,0.4,0.3s0,0.2-0.2,0.3c-0.2,0.1-0.7,0.4-1.2,0.9c-0.5,0.5-0.5,0.8-0.5,0.8s-0.6,0.3-0.8,0.9
			c-0.2,0.7,0.5,1.3,0.5,1.3s0.1,0.4,0.5,0.7c0.4,0.3,0.7,0.3,0.7,0.3s0.1,0.4,0.5,0.8c0.4,0.3,0.5,0.5,0.5,0.5s0,0.2-0.2,0.3
			c-0.2,0.2-0.7,0.5-1.1,1c-0.3,0.4-0.4,0.6-0.4,0.6s-0.6,0.2-0.8,0.9s-0.2,2.3,0.8,3.7c1,1.3,2.6,1.8,3.7,1.7
			c1.2-0.1,2.2-0.6,3.1-1.6c0.9-1,1.1-2.4,1-3.4c-0.1-1-0.9-1.2-0.9-1.2s-0.3-0.5-0.8-1c-0.5-0.5-0.8-0.6-0.9-0.7
			c-0.1-0.1-0.1-0.2-0.1-0.3c0-0.1,0.4-0.4,0.6-0.6c0.2-0.2,0.3-0.5,0.3-0.5s0.5-0.2,0.8-0.5s0.4-0.6,0.4-0.6s0.5-0.3,0.6-1
			c0-0.7-0.8-1.3-0.8-1.3s-0.3-0.6-0.8-1.1c-0.5-0.4-0.9-0.7-0.9-0.7s-0.1-0.2-0.1-0.2c0,0,0.3-0.3,0.5-0.5c0.2-0.2,0.4-0.5,0.4-0.5
			s0.5-0.2,0.8-0.5s0.4-0.6,0.4-0.6s0.6-0.6,0.6-1.4c-0.1-0.8-0.9-1.3-0.9-1.3s-0.4-0.5-0.8-0.9c-0.4-0.4-0.9-0.7-0.9-0.7
			s0.2-0.2,0.4-0.3c0.2-0.2,0.3-0.4,0.3-0.4s0.4-0.2,0.8-0.5c0.3-0.3,0.5-0.7,0.5-0.7s0.7-0.6,0.6-1.5s-1-1.5-1-1.5
			s-0.4-0.5-0.7-0.8c-0.3-0.3-0.8-0.6-0.8-0.6c0.1-0.1,0.1-0.1,0.1-0.1l0.1-0.1c0.4-0.1,0.6-0.3,0.6-0.3s0.3-0.2,0.6-0.4
			s0.4-0.5,0.4-0.5s0.9-0.8,0.8-1.8c-0.1-1.1-1.2-1.8-1.2-1.8s-0.3-0.3-0.6-0.6s-0.5-0.3-0.5-0.3s0.6-0.3,1-0.6
			c0.4-0.3,0.6-0.7,0.6-0.7s0.9-0.8,0.8-2c-0.1-1.3-1.4-2-1.4-2c-0.2-0.2-0.5-0.4-0.5-0.4s0.4-0.3,0.6-0.5c0.2-0.2,0.3-0.4,0.3-0.4
			s1.1-0.9,1.1-2.4c-0.1-1.4-1.6-2.3-1.6-2.3s0.7-0.8,1-1.2c0.3-0.5,0.4-1.4,0.4-1.4c0-0.7-0.2-1.3-0.4-1.6c0,0-0.1-0.3-0.3-0.5
			s-0.4-0.4-0.4-0.4s0.3-0.4,0.6-1c0.3-0.6,0.2-1.2,0.2-1.2s0.3,0,0.5,0c0,0,0.1,0.1,0.1,0.2c0,0-0.1,0.2-0.3,1
			c-0.2,0.8-0.1,1.5-0.1,1.5C259.7,85.7,259.7,86.4,260.5,87.1z"/>
	</g>
</g>
</svg>
