<?xml version="1.0" encoding="utf-8"?>
<!-- Generator: Adobe Illustrator 18.1.0, SVG Export Plug-In . SVG Version: 6.00 Build 0)  -->
<svg version="1.1" id="Drone" xmlns="http://www.w3.org/2000/svg" xmlns:xlink="http://www.w3.org/1999/xlink" x="0px" y="0px"
	 viewBox="0 0 320 180" enable-background="new 0 0 320 180" xml:space="preserve">
<g>
	<path fill="#333333" d="M131.4,86.9c-14.1,0-25.6-11.5-25.6-25.6s11.5-25.6,25.6-25.6S157,47.2,157,61.3S145.5,86.9,131.4,86.9z
		 M131.4,37.2c-13.3,0-24.1,10.8-24.1,24.1s10.8,24.1,24.1,24.1c13.3,0,24.1-10.8,24.1-24.1S144.7,37.2,131.4,37.2z"/>
	<path fill="#333333" d="M131.3,144.2c-14.1,0-25.6-11.5-25.6-25.6S117.2,93,131.3,93s25.6,11.5,25.6,25.6S145.5,144.2,131.3,144.2z
		 M131.3,94.5c-13.3,0-24.1,10.8-24.1,24.1s10.8,24.1,24.1,24.1c13.3,0,24.1-10.8,24.1-24.1S144.6,94.5,131.3,94.5z"/>
	<path fill="#333333" d="M188.6,144.3c-14.1,0-25.6-11.5-25.6-25.6c0-14.1,11.5-25.6,25.6-25.6s25.6,11.5,25.6,25.6
		C214.2,132.8,202.7,144.3,188.6,144.3z M188.6,94.5c-13.3,0-24.1,10.8-24.1,24.1s10.8,24.1,24.1,24.1s24.1-10.8,24.1-24.1
		S201.9,94.5,188.6,94.5z"/>
	<path fill="#333333" d="M188.7,87c-14.1,0-25.6-11.5-25.6-25.6s11.5-25.6,25.6-25.6c14.1,0,25.6,11.5,25.6,25.6S202.8,87,188.7,87z
		 M188.7,37.2c-13.3,0-24.1,10.8-24.1,24.1s10.8,24.1,24.1,24.1s24.1-10.8,24.1-24.1S202,37.2,188.7,37.2z"/>
	<g>
		<path fill="#333333" d="M184.5,114.7c0.7-0.7,1.5-1.1,2.3-1.4l-11-14.5l0,0c-3.9-5.2-3.9-12.3,0-17.5l0,0l11-14.5
			c-0.8-0.3-1.6-0.7-2.3-1.4c-0.6-0.6-1-1.3-1.3-2.1l-14.4,10.9l0,0c-5.2,3.9-12.3,3.9-17.5,0l0,0l-14.4-10.9
			c-0.3,0.8-0.7,1.5-1.3,2.1c-0.7,0.7-1.5,1.1-2.3,1.4l11,14.5l0,0c3.9,5.2,3.9,12.3,0,17.5l0,0l-11,14.5c0.8,0.3,1.6,0.7,2.3,1.4
			c0.6,0.6,1,1.3,1.3,2.1l14.4-10.9l0,0c5.2-3.9,12.3-3.9,17.5,0l0,0l14.4,10.9C183.4,116,183.9,115.3,184.5,114.7z"/>
		<path fill="#333333" d="M146.9,45.1l-2-2c-0.1-0.1-0.4-0.1-0.5,0l-11.4,11c0,0-0.5,0.5-0.7,0.9c-0.2,0.3-0.2,0.7-0.2,0.7l-0.6,2.6
			c-0.8-0.1-1.7,0.2-2.3,0.8c-0.8,0.8-1,2-0.7,3c-1,0.2-2.2,0.2-3-0.1c-0.8-0.2-1.4,0-1.9,0.8l-8.4,13.4c-0.1,0.2-0.1,0.4,0,0.6l2,2
			c0.1,0.1,0.4,0.1,0.5,0l11.4-11c0,0,0.5-0.5,0.7-0.9c0.2-0.3,0.2-0.7,0.2-0.7l0.5-2.2c1,0.2,2,0,2.8-0.7c0.9-0.9,1.1-2.3,0.5-3.5
			c0.9-0.2,2-0.1,2.7,0.1c0.8,0.2,1.4,0,1.9-0.8l8.4-13.4C147,45.5,147,45.3,146.9,45.1z"/>
		<path fill="#333333" d="M146.9,134.9l-2,2c-0.1,0.1-0.4,0.1-0.5,0l-11.4-11c0,0-0.5-0.5-0.7-0.9c-0.2-0.3-0.2-0.7-0.2-0.7
			l-0.6-2.6c-0.8,0.1-1.7-0.2-2.3-0.8c-0.8-0.8-1-2-0.7-3c-1-0.2-2.2-0.2-3,0.1c-0.8,0.2-1.4,0-1.9-0.8l-8.4-13.4
			c-0.1-0.2-0.1-0.4,0-0.6l2-2c0.1-0.1,0.4-0.1,0.5,0l11.4,11c0,0,0.5,0.5,0.7,0.9c0.2,0.3,0.2,0.7,0.2,0.7l0.5,2.2
			c1-0.2,2,0,2.8,0.7c0.9,0.9,1.1,2.3,0.5,3.5c0.9,0.2,2,0.1,2.7-0.1c0.8-0.2,1.4,0,1.9,0.8l8.4,13.4
			C147,134.5,147,134.7,146.9,134.9z"/>
		<path fill="#333333" d="M173.1,45.1l2-2c0.1-0.1,0.4-0.1,0.5,0l11.4,11c0,0,0.5,0.5,0.7,0.9c0.2,0.3,0.2,0.7,0.2,0.7l0.6,2.6
			c0.8-0.1,1.7,0.2,2.3,0.8c0.8,0.8,1,2,0.7,3c1,0.2,2.2,0.2,3-0.1c0.8-0.2,1.4,0,1.9,0.8l8.4,13.4c0.1,0.2,0.1,0.4,0,0.6l-2,2
			c-0.1,0.1-0.4,0.1-0.5,0l-11.4-11c0,0-0.5-0.5-0.7-0.9c-0.2-0.3-0.2-0.7-0.2-0.7l-0.5-2.2c-1,0.2-2,0-2.8-0.7
			c-0.9-0.9-1.1-2.3-0.5-3.5c-0.9-0.2-2-0.1-2.7,0.1c-0.8,0.2-1.4,0-1.9-0.8l-8.4-13.4C173,45.5,173,45.3,173.1,45.1z"/>
		<path fill="#333333" d="M173.1,134.9l2,2c0.1,0.1,0.4,0.1,0.5,0l11.4-11c0,0,0.5-0.5,0.7-0.9c0.2-0.3,0.2-0.7,0.2-0.7l0.6-2.6
			c0.8,0.1,1.7-0.2,2.3-0.8c0.8-0.8,1-2,0.7-3c1-0.2,2.2-0.2,3,0.1c0.8,0.2,1.4,0,1.9-0.8l8.4-13.4c0.1-0.2,0.1-0.4,0-0.6l-2-2
			c-0.1-0.1-0.4-0.1-0.5,0l-11.4,11c0,0-0.5,0.5-0.7,0.9c-0.2,0.3-0.2,0.7-0.2,0.7l-0.5,2.2c-1-0.2-2,0-2.8,0.7
			c-0.9,0.9-1.1,2.3-0.5,3.5c-0.9,0.2-2,0.1-2.7-0.1c-0.8-0.2-1.4,0-1.9,0.8l-8.4,13.4C173,134.5,173,134.7,173.1,134.9z"/>
	</g>
</g>
</svg>
