<?xml version="1.0" encoding="utf-8"?>
<!-- Generator: Adobe Illustrator 18.1.0, SVG Export Plug-In . SVG Version: 6.00 Build 0)  -->
<svg version="1.1" id="Camera__x2B_" xmlns="http://www.w3.org/2000/svg" xmlns:xlink="http://www.w3.org/1999/xlink" x="0px"
	 y="0px" viewBox="0 0 320 180" enable-background="new 0 0 320 180" xml:space="preserve">
<g>
	<g>
		<path fill="#333333" d="M81.3,93.4c0-3.1-2.5-5.7-5.7-5.7h-9v28.8c0,1.8,1.5,3.3,3.3,3.3h11.3V93.4z"/>
		<path fill="#333333" d="M141,79.7c0-2.2-2-4.3-4.4-4.8c-5.2-1.2-10.3-3.3-12.3-6.1c-1.5-2.1-2.3-4-3.4-5.9
			c-1.5-2.4-3.9-2.8-7.7-2.8h-4.5c-3.1,0-5.6,1.4-6.8,4c-0.7,1.4-3.4,7.6-6.5,8.1c-1.1,0.2-2.6,0.3-4.7,0.4
			c-2.6,0.1-16.7,0.6-18.9,1.2c-1.3,0.4-2.3,1-3.2,2c-0.8,0.9-2.1,3-2.1,6.2v1.9h9c5.2,0,9.5,4.2,9.5,9.5v26.5h52.7
			c1.8,0,3.3-1.5,3.3-3.3V83.7C141,83.7,141,81.8,141,79.7z M111.7,114.8c-10,0-18-8.1-18-18s8.1-18,18-18c10,0,18,8.1,18,18
			S121.7,114.8,111.7,114.8z"/>
	</g>
	<g>
		<rect x="160" y="72.2" fill="#333333" width="36.3" height="3.7"/>
		<path fill="#333333" d="M186.3,118.3h-16.2c-1.1,0-2-0.9-2-2v-2h20.2v2C188.3,117.4,187.4,118.3,186.3,118.3z"/>
		<g>
			<rect x="160" y="78.8" fill="#333333" width="36.3" height="11"/>
			<polygon fill="#333333" points="160,103 160,107.1 165.2,112.2 191.2,112.2 196.3,107.1 196.3,103 			"/>
		</g>
		<g>
			<rect x="160" y="91.9" fill="#333333" width="2.3" height="9.1"/>
			<rect x="164.9" y="91.8" fill="#333333" width="2.3" height="9.2"/>
			<rect x="169.7" y="91.8" fill="#333333" width="2.3" height="9.3"/>
			<rect x="174.6" y="91.7" fill="#333333" width="2.3" height="9.4"/>
			<rect x="179.4" y="91.6" fill="#333333" width="2.3" height="9.6"/>
			<rect x="184.3" y="91.6" fill="#333333" width="2.3" height="9.7"/>
			<rect x="189.1" y="91.5" fill="#333333" width="2.3" height="9.8"/>
			<rect x="194" y="91.5" fill="#333333" width="2.3" height="9.9"/>
		</g>
	</g>
	<g>
		<path fill="#333333" d="M246.3,62h-27.8c-3.9,0-7,3.2-7,7v11.4c0,3.9,3.2,7,7,7h27.8c3.9,0,7-3.2,7-7V69
			C253.4,65.2,250.2,62,246.3,62L246.3,62z M218.5,84.2c-2.1,0-3.8-1.7-3.8-3.8V69c0-2.1,1.7-3.8,3.8-3.8h27.8
			c2.1,0,3.8,1.7,3.8,3.8v11.4c0,2.1-1.7,3.8-3.8,3.8H218.5z"/>
		<path fill="#333333" d="M219.1,90.2v19.6c0,2.7,2.2,4.9,4.9,4.9h1.5V99c0-2.1,1.7-3.8,3.8-3.8h6.5c2.1,0,3.8,1.7,3.8,3.8v15.6h1.5
			c2.7,0,4.9-2.2,4.9-4.9V90.2H219.1z"/>
		<path fill="#333333" d="M235.7,97.4c0.9,0,1.6,0.7,1.6,1.6v18.8c0,1.1-0.9,2.1-2.1,2.1h-5.6c-1.1,0-2.1-0.9-2.1-2.1V99
			c0-0.9,0.7-1.6,1.6-1.6H235.7"/>
	</g>
</g>
</svg>
